<svg width="160" height="82" viewBox="0 0 160 82" fill="none" xmlns="http://www.w3.org/2000/svg">
<path d="M17.3668 48H16.0056V11.2967H17.3668V48ZM26.4922 34.085C26.4922 29.7324 27.4081 26.3377 29.2399 23.9009C31.0717 21.4472 33.5842 20.2204 36.7772 20.2204C38.8275 20.2204 40.6341 20.6826 42.197 21.6069C43.7767 22.5312 45.0539 23.9093 46.0287 25.7411V9.28004H47.3899V48H46.0287V43.639C45.1044 45.1851 43.8355 46.3867 42.2222 47.2438C40.6089 48.084 38.7771 48.5042 36.7268 48.5042C33.5673 48.5042 31.0717 47.2522 29.2399 44.7481C27.4081 42.2441 26.4922 38.8074 26.4922 34.4379V34.085ZM27.9039 34.6144C27.9039 38.4797 28.6685 41.5383 30.1978 43.7902C31.7271 46.0253 33.8951 47.1429 36.7016 47.1429C38.9535 47.1429 40.8778 46.6472 42.4743 45.6556C44.0708 44.6473 45.2556 43.1768 46.0287 41.2442V28.4636C44.4657 23.8756 41.3735 21.5817 36.752 21.5817C33.9623 21.5817 31.786 22.6825 30.223 24.884C28.6769 27.0855 27.9039 30.329 27.9039 34.6144ZM58.1286 46.6388H76.9593V48H56.7422V11.2967H58.1286V46.6388ZM99.8736 48V43.5885C99.0669 45.101 97.8905 46.3026 96.3444 47.1933C94.7983 48.0672 92.8405 48.5042 90.4709 48.5042C87.4963 48.5042 85.2612 47.6387 83.7655 45.9077C82.2866 44.1599 81.5304 41.6223 81.4967 38.2948V20.7246H82.858V38.3452C82.8916 41.2358 83.547 43.4289 84.8242 44.9246C86.1015 46.4035 87.9669 47.1429 90.4205 47.1429C93.0253 47.1429 95.1428 46.5295 96.773 45.3027C98.4031 44.0759 99.4367 42.2777 99.8736 39.9081V20.7246H101.26V48H99.8736ZM117.872 32.8246L126.569 20.7246H128.283L118.704 34.0094L128.788 48H127.099L117.847 35.1942L108.621 48H106.932L117.015 34.0094L107.436 20.7246H109.15L117.872 32.8246Z" fill="white"/>
<path d="M17.0005 11L1.00049 48" stroke="white" stroke-width="1.07555" stroke-miterlimit="10"/>
<path d="M19.9499 74H18.9731V68.5014H12.4189V74H11.45V62.5302H12.4189V67.6822H18.9731V62.5302H19.9499V74ZM26.3266 69.6122C26.3266 68.7929 26.4842 68.055 26.7993 67.3986C27.1197 66.7421 27.5687 66.2327 28.1464 65.8703C28.7293 65.5027 29.3884 65.3189 30.1237 65.3189C31.258 65.3189 32.1771 65.718 32.8808 66.5163C33.5845 67.3093 33.9364 68.3623 33.9364 69.6752V69.8721C33.9364 70.6967 33.7762 71.4398 33.4559 72.1015C33.1408 72.758 32.6944 73.2648 32.1167 73.6219C31.539 73.979 30.8799 74.1576 30.1394 74.1576C29.0103 74.1576 28.0912 73.761 27.3822 72.968C26.6785 72.1698 26.3266 71.1142 26.3266 69.8012V69.6122ZM27.272 69.8721C27.272 70.891 27.5345 71.7286 28.0597 72.3851C28.5901 73.0363 29.2834 73.3619 30.1394 73.3619C30.9902 73.3619 31.6782 73.0363 32.2033 72.3851C32.7338 71.7286 32.999 70.8647 32.999 69.7934V69.6122C32.999 68.961 32.8782 68.3649 32.6366 67.824C32.395 67.283 32.0563 66.8655 31.6204 66.5714C31.1845 66.2721 30.6856 66.1224 30.1237 66.1224C29.2834 66.1224 28.598 66.4533 28.0676 67.115C27.5372 67.7714 27.272 68.6327 27.272 69.6988V69.8721ZM41.1403 74H40.195V61.9H41.1403V74ZM47.3832 69.6122C47.3832 68.7929 47.5407 68.055 47.8558 67.3986C48.1762 66.7421 48.6252 66.2327 49.2029 65.8703C49.7858 65.5027 50.4449 65.3189 51.1802 65.3189C52.3145 65.3189 53.2336 65.718 53.9373 66.5163C54.641 67.3093 54.9929 68.3623 54.9929 69.6752V69.8721C54.9929 70.6967 54.8327 71.4398 54.5124 72.1015C54.1973 72.758 53.7509 73.2648 53.1732 73.6219C52.5955 73.979 51.9364 74.1576 51.1959 74.1576C50.0668 74.1576 49.1477 73.761 48.4387 72.968C47.735 72.1698 47.3832 71.1142 47.3832 69.8012V69.6122ZM48.3285 69.8721C48.3285 70.891 48.591 71.7286 49.1162 72.3851C49.6466 73.0363 50.3399 73.3619 51.1959 73.3619C52.0467 73.3619 52.7347 73.0363 53.2598 72.3851C53.7903 71.7286 54.0555 70.8647 54.0555 69.7934V69.6122C54.0555 68.961 53.9347 68.3649 53.6931 67.824C53.4515 67.283 53.1128 66.8655 52.6769 66.5714C52.241 66.2721 51.7421 66.1224 51.1802 66.1224C50.3399 66.1224 49.6545 66.4533 49.1241 67.115C48.5937 67.7714 48.3285 68.6327 48.3285 69.6988V69.8721ZM60.7631 69.6594C60.7631 68.3255 61.0572 67.2699 61.6454 66.4927C62.2388 65.7101 63.0423 65.3189 64.0559 65.3189C65.2166 65.3189 66.0988 65.781 66.7028 66.7053L66.7501 65.4764H67.6324V73.8267C67.6324 74.9243 67.3251 75.7935 66.7107 76.4342C66.0962 77.0749 65.2638 77.3952 64.2135 77.3952C63.62 77.3952 63.0528 77.2613 62.5119 76.9935C61.9762 76.7309 61.5535 76.379 61.2436 75.9379L61.7714 75.3707C62.4384 76.19 63.2314 76.5996 64.1505 76.5996C64.9382 76.5996 65.5527 76.3659 65.9938 75.8985C66.435 75.4363 66.6634 74.793 66.6792 73.9685V72.8971C66.0752 73.7374 65.1955 74.1576 64.0402 74.1576C63.0528 74.1576 62.2598 73.7637 61.6611 72.9759C61.0624 72.1882 60.7631 71.1247 60.7631 69.7855V69.6594ZM61.7163 69.8249C61.7163 70.912 61.9342 71.7706 62.3701 72.4008C62.806 73.0258 63.4205 73.3383 64.2135 73.3383C65.3741 73.3383 66.196 72.8184 66.6792 71.7785V67.8161C66.4586 67.2699 66.1409 66.855 65.726 66.5714C65.3111 66.2826 64.8122 66.1382 64.2292 66.1382C63.4362 66.1382 62.8191 66.4506 62.378 67.0756C61.9369 67.6953 61.7163 68.6117 61.7163 69.8249ZM78.2236 66.28C78.0241 66.2432 77.8114 66.2248 77.5855 66.2248C76.9973 66.2248 76.4984 66.3902 76.0888 66.7211C75.6844 67.0467 75.3956 67.522 75.2223 68.1469V74H74.2848V65.4764H75.2065L75.2223 66.8314C75.7212 65.8231 76.5221 65.3189 77.6249 65.3189C77.8875 65.3189 78.095 65.353 78.2473 65.4213L78.2236 66.28ZM88.9803 74C88.8858 73.7322 88.8254 73.3357 88.7991 72.8105C88.4683 73.2411 88.0455 73.5746 87.5309 73.8109C87.0214 74.042 86.4805 74.1576 85.9081 74.1576C85.0888 74.1576 84.4245 73.9291 83.915 73.4722C83.4109 73.0153 83.1588 72.4376 83.1588 71.7391C83.1588 70.9094 83.5028 70.2529 84.1907 69.7697C84.884 69.2866 85.8477 69.045 87.0818 69.045H88.7913V68.076C88.7913 67.4668 88.6022 66.9889 88.2241 66.6423C87.8512 66.2905 87.305 66.1145 86.5855 66.1145C85.9291 66.1145 85.3855 66.2826 84.9549 66.6187C84.5242 66.9548 84.3089 67.3592 84.3089 67.8318L83.3636 67.824C83.3636 67.1465 83.6787 66.5609 84.3089 66.0673C84.9391 65.5683 85.7138 65.3189 86.6328 65.3189C87.5834 65.3189 88.3317 65.5578 88.8779 66.0357C89.4294 66.5084 89.7129 67.1701 89.7287 68.0209V72.0542C89.7287 72.8788 89.8154 73.4958 89.9887 73.9055V74H88.9803ZM86.0184 73.3225C86.6486 73.3225 87.2105 73.1702 87.7042 72.8656C88.2031 72.561 88.5654 72.154 88.7913 71.6446V69.7697H87.1055C86.1654 69.7802 85.4302 69.9535 84.8997 70.2897C84.3693 70.6205 84.1041 71.0774 84.1041 71.6604C84.1041 72.1383 84.28 72.5348 84.6319 72.8499C84.989 73.165 85.4512 73.3225 86.0184 73.3225ZM97.3028 65.4764L97.3344 66.8629C97.6495 66.3482 98.0433 65.9622 98.516 65.7049C98.9887 65.4476 99.5138 65.3189 100.092 65.3189C101.436 65.3189 102.289 65.8703 102.652 66.9732C102.956 66.4428 103.363 66.0357 103.873 65.7522C104.382 65.4633 104.944 65.3189 105.559 65.3189C107.386 65.3189 108.318 66.3167 108.355 68.3124V74H107.41V68.3833C107.405 67.6218 107.239 67.0572 106.914 66.6896C106.593 66.322 106.068 66.1382 105.338 66.1382C104.661 66.1487 104.088 66.3692 103.621 66.7999C103.153 67.2253 102.893 67.7452 102.841 68.3596V74H101.895V68.3124C101.89 67.5824 101.717 67.0388 101.376 66.6817C101.039 66.3193 100.52 66.1382 99.8158 66.1382C99.2224 66.1382 98.7129 66.3088 98.2875 66.6502C97.8622 66.9863 97.5471 67.4879 97.3422 68.1548V74H96.3969V65.4764H97.3028ZM120.049 71.8337C120.049 71.3663 119.86 70.9908 119.482 70.7072C119.109 70.4236 118.545 70.203 117.788 70.0454C117.032 69.8826 116.444 69.6988 116.024 69.494C115.609 69.2839 115.299 69.0292 115.094 68.7299C114.895 68.4305 114.795 68.0682 114.795 67.6428C114.795 66.9706 115.076 66.4165 115.638 65.9806C116.2 65.5395 116.919 65.3189 117.796 65.3189C118.747 65.3189 119.508 65.5552 120.081 66.0279C120.658 66.4953 120.947 67.1071 120.947 67.8634H120.002C120.002 67.3644 119.792 66.9496 119.372 66.6187C118.957 66.2878 118.432 66.1224 117.796 66.1224C117.177 66.1224 116.678 66.2616 116.3 66.5399C115.927 66.813 115.74 67.1701 115.74 67.6113C115.74 68.0367 115.895 68.3675 116.205 68.6038C116.52 68.8349 117.09 69.0476 117.914 69.2419C118.744 69.4362 119.364 69.6437 119.774 69.8643C120.188 70.0848 120.496 70.35 120.695 70.6599C120.895 70.9698 120.995 71.3452 120.995 71.7864C120.995 72.5059 120.703 73.0809 120.12 73.5116C119.542 73.9422 118.786 74.1576 117.851 74.1576C116.859 74.1576 116.053 73.9186 115.433 73.4407C114.819 72.9575 114.511 72.3483 114.511 71.6131H115.457C115.493 72.1645 115.724 72.5952 116.15 72.905C116.58 73.2096 117.148 73.3619 117.851 73.3619C118.508 73.3619 119.038 73.2175 119.443 72.9286C119.847 72.6398 120.049 72.2748 120.049 71.8337Z" fill="white"/>
</svg>
