<svg width="67" height="67" viewBox="0 0 67 67" fill="none" xmlns="http://www.w3.org/2000/svg">
<path d="M57.2518 31.2701C57.4367 31.3054 57.6236 31.3719 57.8085 31.3739C59.9483 31.3823 62.0902 31.3698 64.2299 31.3885C64.7223 31.3926 65.2209 31.4591 65.7049 31.5609C66.7623 31.7832 67.1197 32.4916 66.9659 33.576C66.8267 34.5628 66.189 35.1445 65.2915 35.4187C64.6309 35.6223 63.9391 35.7615 63.2514 35.828C61.7349 35.9734 60.2101 36.0544 58.6894 36.1604C57.0191 36.2767 55.3468 36.3951 53.6765 36.5094C52.4363 36.5946 51.1939 36.6714 49.9537 36.7545C49.6068 36.7774 49.2619 36.8106 48.915 36.8397C48.5764 37.1015 48.1816 36.9498 47.8139 36.9914C47.5896 36.9768 47.3673 36.9706 47.1491 37.0454C46.8998 37.0952 46.6464 37.0869 46.393 37.089C46.1457 37.0786 45.8964 37.0641 45.6555 37.1451C45.4062 37.195 45.1548 37.1846 44.9034 37.1887C44.6583 37.1804 44.4131 37.1617 44.1742 37.2427C43.9852 37.2822 43.7961 37.2843 43.605 37.2864C43.3162 37.2864 43.0275 37.249 42.7429 37.3238C42.693 37.3383 42.6411 37.3487 42.5891 37.357C42.4603 37.3736 42.3315 37.3736 42.2007 37.3757C42.0989 37.3778 41.9971 37.3757 41.8953 37.3757C41.8184 37.3778 41.7415 37.3757 41.6668 37.3757C41.486 37.3695 41.3074 37.3882 41.1349 37.4463C40.9189 37.49 40.7028 37.4775 40.4847 37.4816C39.6184 37.5315 38.75 37.5793 37.8899 37.6894C37.7238 37.7102 37.5721 37.7683 37.4371 37.866C36.9219 38.2337 36.415 38.6159 35.827 38.8694C35.3409 39.0626 34.8506 39.2371 34.3209 39.2683C34.0882 39.2724 33.8555 39.2537 33.627 39.316C33.5481 39.3285 33.4691 39.3264 33.3902 39.316C32.6236 39.2745 31.8653 39.2018 31.1632 38.8548C30.6812 38.6055 30.2075 38.3396 29.7754 38.0072C29.3122 37.5647 28.853 37.1181 28.5144 36.5655C28.236 35.8259 27.6855 35.6867 26.9376 35.6909C21.3908 35.7241 15.842 35.6971 10.2931 35.7137C10.1456 35.7137 9.99188 35.7407 9.86308 35.6348C9.68649 35.6099 9.51199 35.5621 9.3354 35.56C7.29327 35.5538 5.25114 35.5642 3.20901 35.5517C2.66264 35.5475 2.11626 35.5018 1.57405 35.4437C1.33099 35.4167 1.09 35.3315 0.861484 35.238C0.396135 35.0469 0.130225 34.6792 0.040895 34.1889C-0.146076 33.1626 0.317191 32.2278 1.24373 31.7354C1.8545 31.4113 2.52136 31.2638 3.19654 31.1911C4.39938 31.0602 5.60638 30.9688 6.81338 30.8774C8.25305 30.7694 9.69272 30.6738 11.1324 30.5783C12.2584 30.5035 13.3844 30.437 14.5103 30.3664C15.6363 30.2957 16.7602 30.2251 17.8862 30.1482C17.961 30.1441 18.0316 30.0901 18.1043 30.061C18.5717 29.7826 19.1036 29.9052 19.598 29.8636C20.8258 29.7577 22.0556 29.685 23.2876 29.6206C23.5472 29.6372 23.8069 29.6559 24.0583 29.5707C24.3408 29.5167 24.6254 29.5312 24.9121 29.5271C25.1344 29.5416 25.3546 29.5437 25.5707 29.471C25.8491 29.417 26.1295 29.4315 26.412 29.4294C26.6322 29.4419 26.8525 29.4461 27.0664 29.3734C27.3407 29.3214 27.617 29.3318 27.8933 29.336C28.4729 29.2612 29.0816 29.3547 29.6175 29.0368C30.0559 28.6089 30.6043 28.3554 31.1382 28.077C31.6098 27.8277 32.1146 27.6885 32.6423 27.6304C33.0495 27.5265 33.4608 27.512 33.8763 27.5784C34.4809 27.6615 35.0916 27.7114 35.6567 27.9732C36.2197 28.2328 36.764 28.5278 37.2563 28.9122C37.7196 29.3547 38.1787 29.8013 38.5194 30.356C38.7978 31.0956 39.3462 31.2348 40.0941 31.2306C45.456 31.1994 50.82 31.2119 56.1819 31.2202C56.5351 31.2119 56.9049 31.081 57.2518 31.2701Z" fill="#0AEBFB"/>
<path d="M24.9454 29.6502C24.6587 29.6605 24.372 29.6709 24.0853 29.6813C23.8464 29.7686 23.5888 29.6626 23.352 29.7519C22.2302 29.8288 21.1083 29.9119 19.9844 29.9805C19.3571 30.0179 18.7297 30.0324 18.1023 30.0573C16.5795 29.4964 15.0588 28.9314 13.534 28.3725C10.4074 27.2278 7.27669 26.0894 4.15013 24.9364C3.67023 24.7598 3.19449 24.5521 2.74992 24.3028C1.76936 23.7502 1.56577 22.9462 2.08098 21.9449C2.58788 20.9623 3.5352 20.5987 4.74012 20.7337C5.9305 20.8688 7.07517 21.2053 8.22192 21.5398C11.8949 22.6159 15.5719 23.6816 19.2469 24.7494C19.3238 24.7723 19.4048 24.7827 19.5295 24.7432C19.4339 24.6539 19.3425 24.5604 19.2407 24.4794C15.6945 21.5793 12.1462 18.6812 8.6021 15.7749C8.23024 15.4716 7.86045 15.1537 7.5426 14.7964C6.70331 13.8532 6.70954 13.0202 7.78566 12.1102C8.31333 11.6636 8.92618 11.5473 9.6055 11.6885C10.2682 11.8256 10.8686 12.1123 11.4191 12.4779C12.6635 13.3027 13.8892 14.1545 15.1107 15.0145C17.1321 16.4376 19.1452 17.8752 21.1603 19.3065C21.2683 19.3834 21.368 19.4706 21.4719 19.5517C21.769 19.5849 21.9248 19.8072 22.0744 20.0253C24.0604 22.8818 25.9467 25.8027 27.885 28.6904C28.047 28.9314 28.1883 29.1806 27.9286 29.4507C27.6398 29.4611 27.3532 29.4715 27.0644 29.4798C26.8629 29.565 26.6406 29.4694 26.437 29.5484C26.1482 29.5587 25.8595 29.5691 25.5686 29.5795C25.3713 29.6647 25.149 29.5671 24.9454 29.6502Z" fill="#032325"/>
<path d="M38.3037 30.2627C37.9339 29.8347 37.5641 29.4068 37.1943 28.9788C37.3169 28.7856 37.5226 28.7004 37.7075 28.6007C40.0612 27.3127 42.4046 26.0018 44.7542 24.7055C46.0152 24.0096 47.3094 23.3697 48.504 22.5574C48.5746 22.5096 48.6473 22.4764 48.7366 22.4972C48.8447 22.7195 48.9652 22.5387 49.0545 22.491C49.8148 22.0817 50.569 21.662 51.3231 21.2445C53.8783 19.8297 56.4294 18.4088 58.9889 17.0023C59.4812 16.7323 59.9923 16.485 60.5137 16.2752C61.8391 15.7413 62.6119 16.4726 62.9235 17.6941C63.0877 18.336 62.9194 18.926 62.5288 19.4309C62.238 19.809 61.9097 20.1808 61.5296 20.4634C60.5573 21.1842 59.5622 21.8781 58.5484 22.5367C56.0451 24.1675 53.5252 25.7733 51.0114 27.3875C50.9013 27.4581 50.7809 27.5163 50.6666 27.5786C50.544 27.8986 50.2428 27.9256 49.9727 27.9879C48.1134 28.4138 46.2416 28.7856 44.3761 29.1845C42.6082 29.5626 40.8423 29.9552 39.0682 30.3063C38.8127 30.3562 38.5488 30.4497 38.3037 30.2627Z" fill="#04BCC9"/>
<path d="M28.7283 36.6489C29.0981 37.0769 29.4679 37.5049 29.8377 37.9328C29.1501 38.4584 28.3585 38.8095 27.6086 39.2291C24.7521 40.8205 21.8894 42.4035 19.0246 43.9782C18.8147 44.0945 18.6735 44.348 18.3847 44.3147C18.2538 44.3521 18.1084 44.3646 17.9921 44.429C15.4804 45.8147 12.9729 47.2065 10.4634 48.5964C9.44751 49.1593 8.43788 49.7327 7.41369 50.277C6.85901 50.572 6.28564 50.8338 5.62708 50.8234C5.21367 50.8151 4.87297 50.6655 4.62991 50.3518C3.88618 49.3941 3.78854 48.3699 4.5759 47.3935C4.92698 46.9593 5.34455 46.5625 5.79536 46.2322C6.71775 45.557 7.67337 44.9276 8.63315 44.3043C11.124 42.6881 13.6232 41.0843 16.1182 39.4784C16.2013 39.4244 16.2906 39.3829 16.3779 39.3351C16.5129 38.9757 16.8536 38.9445 17.1528 38.8801C18.3369 38.6246 19.5211 38.3732 20.7052 38.1239C23.0423 37.6316 25.3795 37.1351 27.7166 36.6427C28.0511 36.57 28.3939 36.41 28.7283 36.6489Z" fill="#04BCC9"/>
<path d="M33.4316 39.2273C33.4877 39.2273 33.5438 39.2273 33.5999 39.2273C33.8284 39.1546 34.0611 39.1941 34.2938 39.2024C34.5223 39.4641 34.3665 39.7446 34.3083 40.0043C33.789 42.2811 33.2717 44.558 32.7648 46.837C32.3181 48.8396 31.7988 50.8278 31.4477 52.8512C31.4311 52.9509 31.4041 53.0444 31.3168 53.1088C31.107 53.1441 31.1464 53.3249 31.1153 53.4599C30.5523 55.9341 29.9955 58.4084 29.4325 60.8805C29.1708 62.0273 28.9132 63.1761 28.6244 64.3166C28.5289 64.6989 28.3793 65.077 28.1985 65.426C27.8454 66.1074 27.2949 66.3505 26.5387 66.2196C25.5394 66.0472 24.8414 65.4073 24.6627 64.4143C24.5734 63.9136 24.5256 63.388 24.5713 62.8832C24.6731 61.7448 24.8227 60.6105 24.993 59.4783C25.3628 57.0352 25.7575 54.5983 26.1439 52.1573C26.2416 51.5341 26.3475 50.915 26.4514 50.2918C26.4244 50.0217 26.4805 49.7849 26.6197 49.5398C28.479 46.2636 30.3778 43.0124 32.1873 39.7093C32.4926 39.1483 32.9123 39.1255 33.4316 39.2273Z" fill="#03757E"/>
<path d="M35.8102 38.7492C36.3047 38.4396 36.7991 38.128 37.2935 37.8185C37.3995 37.8891 37.4223 38.0055 37.4597 38.1156C38.8579 42.3099 40.3329 46.4794 41.731 50.6737C41.8224 50.948 42.0467 51.1869 41.9886 51.5089C41.7933 51.6668 41.9844 51.8163 42.026 51.941C42.6201 53.7172 43.2309 55.4893 43.8375 57.2613C44.3631 58.7986 44.8929 60.336 45.4039 61.8774C45.5452 62.3012 45.6553 62.7375 45.7259 63.1779C45.89 64.1917 45.4953 64.7796 44.5044 65.085C43.6007 65.3634 42.8216 65.1369 42.2046 64.4514C41.8639 64.0733 41.5565 63.6433 41.3259 63.1904C40.8771 62.3054 40.472 61.3934 40.0836 60.4793C38.9243 57.7475 37.7817 55.0073 36.6329 52.2692C36.5831 52.1487 36.5477 52.0199 36.5062 51.8953C36.2112 51.6917 36.1593 51.378 36.1593 51.0601C36.1676 49.0242 36.0076 46.9946 35.9328 44.9608C35.8643 43.1284 35.8289 41.292 35.6752 39.4617C35.6544 39.2104 35.6482 38.9652 35.8102 38.7492Z" fill="#02464B"/>
<path d="M48.7362 22.4957C48.3249 22.7699 47.9302 23.0711 47.5022 23.3163C46.3534 23.9748 45.1921 24.6126 44.0349 25.2524C42.9775 25.8362 41.9139 26.4096 40.8564 26.9954C39.7699 27.5958 38.6897 28.2066 37.6032 28.809C37.4743 28.8797 37.331 28.9233 37.1939 28.9794C36.6932 28.6823 36.1926 28.3852 35.6919 28.0882C36.847 26.9019 38.0519 25.7656 39.1924 24.5648C41.2138 22.4417 43.2933 20.3725 45.3707 18.3055C45.566 18.1122 45.6429 17.8048 45.94 17.7134C45.9877 17.7342 46.0604 17.7861 46.0771 17.7715C46.2038 17.6635 46.3201 17.5451 46.4365 17.4288C48.7237 15.1103 51.0048 12.7877 53.3004 10.4797C53.7429 10.0351 54.2144 9.60301 54.7276 9.24362C55.5461 8.67232 56.2067 8.77827 56.8943 9.5033C57.5072 10.1515 57.7295 10.9139 57.3992 11.7511C57.1831 12.3016 56.9027 12.848 56.5453 13.3154C55.7185 14.3957 54.8397 15.4386 53.9568 16.4731C52.3073 18.4052 50.6371 20.3227 48.9751 22.2443C48.9003 22.3315 48.8172 22.4126 48.7362 22.4957Z" fill="#03A4B0"/>
<path d="M31.1236 28.1709C30.6583 28.47 30.1929 28.7692 29.7276 29.0704C29.4824 28.6549 29.3516 28.1916 29.1999 27.7408C27.916 23.8934 26.5574 20.0688 25.2943 16.2151C25.2091 15.9534 25.0055 15.7249 25.0492 15.4236C25.1821 15.2387 25.0305 15.085 24.9785 14.9313C24.1912 12.6087 23.3976 10.2882 22.604 7.96767C22.2675 6.98088 21.9226 5.99409 21.6006 5.00107C21.4676 4.59181 21.3492 4.17424 21.2869 3.75044C21.1166 2.62447 21.7024 1.90359 22.8346 1.74986C23.7965 1.61898 24.5049 2.01785 25.0741 2.74704C25.6516 3.48661 26.0526 4.32798 26.412 5.17973C27.7935 8.44548 29.1542 11.7216 30.5212 14.9936C30.5336 15.0227 30.5316 15.058 30.5378 15.0912C30.7476 15.2263 30.7476 15.4486 30.7808 15.6605C30.9491 16.7948 30.9138 17.9415 30.9616 19.0799C31.0738 21.7578 31.2503 24.4335 31.2836 27.1134C31.2898 27.4728 31.5308 27.8738 31.1236 28.1709Z" fill="#02464B"/>
<path d="M18.3846 44.3119C18.7752 43.886 19.3174 43.6928 19.7993 43.4165C21.1476 42.6457 22.5187 41.9166 23.8753 41.1645C25.5643 40.2276 27.247 39.2782 28.938 38.3433C29.2247 38.1834 29.5363 38.0691 29.8376 37.9341C30.2676 38.2 30.6976 38.4659 31.1256 38.7318C31.2004 38.9375 31.0342 39.0351 30.9262 39.1473C30.2032 39.9035 29.5114 40.6867 28.7656 41.4221C27.085 43.0778 25.4126 44.7419 23.7631 46.4267C22.9051 47.3034 22.0451 48.1801 21.2515 49.1191C21.2078 49.171 21.1538 49.2084 21.0811 49.198C21.0313 49.1855 20.9586 49.144 20.9357 49.1648C20.8214 49.2603 20.7197 49.3684 20.6137 49.4764C18.235 51.8842 15.8563 54.294 13.4714 56.6976C13.1681 57.003 12.8503 57.298 12.5033 57.5514C11.3192 58.4219 10.0935 58.0189 9.59699 56.6187C9.37262 55.983 9.44741 55.3556 9.75903 54.7905C10.1101 54.1548 10.4882 53.5191 10.9494 52.9603C12.1834 51.4624 13.4631 50.002 14.7304 48.5312C15.9457 47.1164 17.1672 45.7141 18.3846 44.3119Z" fill="#03A4B0"/>
<path d="M33.8993 27.6827C33.4713 27.7076 33.0454 27.7325 32.6175 27.7554C32.5344 27.5726 32.6009 27.396 32.6403 27.2194C33.6126 22.8942 34.6326 18.5772 35.5633 14.2416C35.5903 14.1128 35.6007 13.9757 35.7254 13.8926C35.7877 13.743 35.8729 13.5996 35.9082 13.4438C36.7038 9.96619 37.4912 6.48854 38.2889 3.01089C38.3741 2.6411 38.4863 2.27339 38.6192 1.91607C39.1885 0.389144 40.3809 0.401609 41.5027 1.12456C42.0491 1.47773 42.3026 2.03656 42.396 2.67226C42.5622 3.78993 42.4314 4.89306 42.2382 5.98995C41.6295 9.45306 41.0062 12.9141 40.3872 16.3772C40.3601 16.5247 40.3186 16.668 40.2833 16.8135C40.383 17.8854 39.6413 18.6271 39.1822 19.456C37.7135 22.0964 36.199 24.7119 34.7219 27.3482C34.5184 27.7076 34.2649 27.7928 33.8993 27.6827Z" fill="#02757E"/>
<path d="M41.6898 37.2605C41.7542 37.2605 41.8207 37.2605 41.8851 37.2605C42.1905 37.8214 42.7535 38.1102 43.2146 38.4987C44.378 39.4771 45.5622 40.4307 46.7505 41.3759C47.1057 41.6585 47.49 41.9202 47.9886 41.9202C48.2213 41.9202 48.4124 42.0158 48.3646 42.3129C48.08 42.2401 47.7954 42.1695 47.5087 42.0968C47.49 42.1217 47.4734 42.1467 47.4547 42.1716C47.5814 42.2796 47.7061 42.3897 47.8349 42.4936C51.3583 45.3688 54.8858 48.2419 58.4008 51.1254C58.8475 51.491 59.2692 51.9003 59.639 52.3449C60.2352 53.0595 60.202 53.7471 59.587 54.4514C58.9825 55.1453 58.2304 55.4756 57.3205 55.1889C56.7866 55.0227 56.2403 54.8295 55.7749 54.5283C54.41 53.6474 53.0721 52.723 51.7426 51.7881C49.6797 50.338 47.6313 48.8672 45.5767 47.4047C45.4666 47.3569 45.3357 47.3548 45.2526 47.251C45.0366 47.0411 44.8538 46.8064 44.6896 46.5571C42.849 43.7941 40.9668 41.0581 39.1408 38.2847C39.1221 38.2577 39.1034 38.2307 39.0868 38.2016C38.9787 38.0188 38.7751 37.838 38.8686 37.6199C38.9767 37.3644 39.2509 37.5243 39.4482 37.4932C39.9759 37.4142 40.5077 37.4495 41.0375 37.4371C41.2681 37.435 41.5091 37.4475 41.6898 37.2605Z" fill="#022427"/>
<path d="M35.8107 38.7499C35.8439 39.7242 35.873 40.7006 35.9104 41.6749C35.9374 42.402 35.9769 43.1271 36.0059 43.8542C36.0413 44.7142 36.0724 45.5722 36.1077 46.4323C36.1389 47.1594 36.1763 47.8844 36.2054 48.6115C36.2407 49.4716 36.2615 50.3296 36.3134 51.1876C36.3279 51.4265 36.4381 51.6612 36.5045 51.896C36.2926 52.0248 36.4069 52.2284 36.4131 52.3883C36.463 53.7989 36.5274 55.2095 36.5897 56.618C36.6915 58.9572 36.8058 61.2964 36.8909 63.6356C36.9138 64.263 36.893 64.9008 36.8058 65.5199C36.6749 66.4464 36.1971 66.8495 35.2684 66.9014C34.3648 66.9533 33.6356 66.6168 33.191 65.8066C32.9936 65.4472 32.8108 65.0566 32.7298 64.6598C32.5262 63.6543 32.3517 62.6385 32.2271 61.6205C31.984 59.6449 31.7783 57.663 31.5644 55.6832C31.4709 54.8252 31.3961 53.9672 31.313 53.1071C31.3878 52.5691 31.4272 52.0227 31.5436 51.495C31.9487 49.6586 32.3849 47.8304 32.8025 45.996C33.3073 43.7773 33.8059 41.5565 34.3066 39.3357C34.3128 39.3046 34.3087 39.2692 34.3107 39.236C34.2754 39.2131 34.263 39.1945 34.2775 39.1799C34.29 39.1654 34.3045 39.1571 34.3191 39.1571C34.8176 39.022 35.3142 38.887 35.8107 38.7499Z" fill="#015E65"/>
<path d="M35.7274 13.8946C35.5549 14.7651 35.3991 15.6397 35.208 16.506C34.6866 18.868 34.1506 21.2259 33.6146 23.5838C33.3196 24.8843 33.0184 26.1806 32.7171 27.4791C32.6943 27.5746 32.6527 27.6639 32.6174 27.7574C32.1188 27.8945 31.6202 28.0337 31.1217 28.1708C31.1507 27.9776 31.2048 27.7844 31.2027 27.5933C31.1964 27.2983 31.1362 27.0054 31.1258 26.7104C31.0863 25.5366 31.0593 24.3629 31.0199 23.1891C30.9949 22.4475 30.9555 21.7037 30.9222 20.9621C30.889 20.2038 30.8557 19.4435 30.8225 18.6852C30.7893 17.9602 30.7706 17.2331 30.7186 16.508C30.6833 16.0344 30.6002 15.5628 30.5379 15.0891C30.5649 14.9167 30.621 14.7443 30.6127 14.5719C30.5275 12.4487 30.4299 10.3276 30.3385 8.20655C30.2595 6.36593 30.1764 4.52531 30.1203 2.68469C30.1058 2.19234 30.1411 1.68544 30.2429 1.20555C30.4174 0.380799 31.0032 -0.078317 32.0835 0.0110133C33.0184 0.087879 33.6291 0.615551 34.0114 1.45276C34.3396 2.17156 34.4913 2.93814 34.5889 3.71095C34.8174 5.52041 35.0086 7.33402 35.2142 9.14764C35.3659 10.4814 35.5155 11.8172 35.663 13.153C35.692 13.3981 35.7066 13.6474 35.7274 13.8946Z" fill="#015E65"/>
<path d="M21.0832 49.1942C21.3096 48.9117 21.5132 48.6084 21.7646 48.3529C24.4632 45.6106 27.1722 42.8767 29.8708 40.1324C30.3112 39.6857 30.708 39.1975 31.1256 38.7301C31.8319 38.9649 32.5362 39.1975 33.2965 39.1684C33.3401 39.1664 33.3858 39.2058 33.4295 39.2266C33.3796 39.2308 33.3277 39.2474 33.282 39.237C32.7356 39.1103 32.4822 39.4323 32.2495 39.8582C31.6034 41.0319 30.9261 42.1911 30.2655 43.3566C29.8085 44.1626 29.3556 44.9728 28.8985 45.781C28.1652 47.0794 27.4277 48.3736 26.7006 49.6741C26.5926 49.8673 26.5303 50.0896 26.4472 50.2973C26.3391 50.422 26.2083 50.5321 26.1293 50.6713C24.7997 53.0043 23.4785 55.3435 22.1489 57.6764C21.3948 59.0019 20.6407 60.3273 19.8616 61.6381C19.6518 61.9892 19.3776 62.3154 19.0805 62.5979C18.5612 63.0924 18.0293 63.1401 17.3936 62.8244C16.3695 62.3154 15.902 61.4366 16.1035 60.2836C16.1949 59.7664 16.3383 59.2428 16.544 58.7609C17.0612 57.558 17.6118 56.3718 18.1768 55.1897C19.1366 53.185 20.113 51.1906 21.0832 49.1942Z" fill="#028D97"/>
<path d="M41.6895 37.2605C41.7061 37.5243 41.5399 37.5451 41.3363 37.5451C40.7068 37.5389 40.0753 37.543 39.4458 37.543C39.2838 37.543 39.1238 37.543 38.8932 37.543C38.9722 37.7279 39.0054 37.8526 39.0719 37.9544C40.2415 39.716 41.4132 41.4777 42.5932 43.2352C43.339 44.3467 44.0931 45.4519 44.8513 46.555C45.0092 46.7835 45.2024 46.9892 45.379 47.2052C45.2855 47.3424 45.4559 47.4068 45.4642 47.5169C47.7203 50.8761 49.9826 54.2333 52.2284 57.5987C52.5566 58.0911 52.8412 58.6229 53.0843 59.163C53.3336 59.7157 53.2858 60.2745 52.8537 60.7398C52.5088 61.1117 52.0726 61.3548 51.5719 61.4586C51.1024 61.5542 50.635 61.5147 50.2215 61.2758C49.8518 61.0618 49.4695 60.8333 49.1766 60.5279C48.5118 59.8341 47.8678 59.1173 47.2736 58.3632C45.5514 56.1715 43.8562 53.959 42.1527 51.7528C42.0925 51.6759 42.0426 51.5907 41.9865 51.5097C41.8557 51.2272 41.6978 50.953 41.596 50.66C40.9229 48.7031 40.2664 46.742 39.5975 44.785C38.887 42.7034 38.1661 40.6239 37.4556 38.5402C37.3767 38.3075 37.3455 38.0603 37.2915 37.8193C37.4369 37.7238 37.574 37.5555 37.7257 37.541C38.6481 37.4599 39.5725 37.4163 40.497 37.3581C40.7214 37.435 40.952 37.3768 41.1784 37.3935C41.2449 37.3976 41.1659 37.4225 41.222 37.3955C41.249 37.3831 41.1639 37.3727 41.1659 37.3311C41.3405 37.3083 41.515 37.2854 41.6895 37.2605Z" fill="#012F32"/>
<path d="M33.8994 27.6829C34.2775 27.7244 34.4769 27.5541 34.6598 27.2092C35.229 26.1248 35.8501 25.0695 36.4547 24.0037C36.9616 23.1125 37.4747 22.2234 37.9837 21.3321C38.6402 20.1833 39.2966 19.0324 39.951 17.8815C40.0902 17.6363 40.2211 17.3891 40.1962 17.0858C40.1899 16.9986 40.2523 16.9051 40.2834 16.8158C40.2834 16.93 40.2834 17.0443 40.2834 17.2811C40.4268 17.0547 40.514 16.9279 40.5909 16.795C42.6974 13.0867 44.7998 9.37433 46.9167 5.67231C47.1702 5.22982 47.4818 4.81017 47.8287 4.43623C48.3751 3.84416 48.9672 3.7756 49.6776 4.13916C50.6811 4.65021 51.1194 5.57052 50.9137 6.71312C50.7475 7.63758 50.3985 8.49972 49.9997 9.33694C48.695 12.0792 47.3654 14.8089 46.0442 17.5429C46.0151 17.6031 45.9756 17.6571 45.9424 17.7132C45.7305 17.9854 45.5414 18.2804 45.3005 18.5234C43.8899 19.9506 42.4585 21.3612 41.0479 22.7884C39.4275 24.4275 37.8216 26.0791 36.2033 27.7203C36.0579 27.8678 35.8626 27.9654 35.6902 28.0859C35.0939 27.953 34.4977 27.8179 33.8994 27.6829Z" fill="#028D97"/>
<path d="M25.0492 15.4215C25.1717 15.6729 25.3234 15.9138 25.4127 16.1756C26.2769 18.7142 27.1266 21.2591 27.9908 23.7978C28.5247 25.3642 29.0794 26.9243 29.6154 28.4907C29.6777 28.6756 29.6923 28.8771 29.7276 29.0703C29.5842 29.3009 29.3744 29.3799 29.1064 29.384C28.7138 29.3903 28.3232 29.4276 27.9327 29.4505C27.9887 29.1825 27.9368 28.9623 27.7727 28.7192C26.0297 26.1328 24.3096 23.5298 22.5687 20.9433C22.2404 20.4551 21.9475 19.9316 21.4739 19.5535C21.503 19.512 21.5674 19.4538 21.557 19.433C21.4884 19.3022 21.4053 19.1775 21.3201 19.0529C19.1534 15.8328 16.9845 12.6148 14.8219 9.38857C14.5456 8.97723 14.2797 8.55136 14.0698 8.10263C13.4341 6.74398 14.1509 5.55567 15.6612 5.42064C16.1784 5.37494 16.6459 5.51828 17.0821 5.78419C17.7739 6.20384 18.3182 6.78968 18.8189 7.40876C19.7891 8.60952 20.7322 9.82899 21.6775 11.0485C22.8076 12.5047 23.9253 13.9652 25.0492 15.4215Z" fill="#012F32"/>
<path d="M48.3668 42.314C48.2837 42.1105 48.1507 41.9879 47.9097 42.0274C47.4423 42.1021 47.0974 41.7926 46.7817 41.5599C45.8801 40.8972 45.0304 40.166 44.162 39.4596C43.4349 38.8676 42.7099 38.2693 41.9828 37.6793C41.8373 37.5608 41.7542 37.4383 41.8851 37.2617C41.9869 37.2575 42.0866 37.2555 42.1884 37.2513C42.3235 37.3178 42.4564 37.3323 42.5873 37.2368C42.6101 37.2139 42.633 37.2118 42.6579 37.2347C42.955 37.0893 43.2895 37.3531 43.5824 37.1537C43.7714 37.1474 43.9605 37.1412 44.1495 37.135C44.3843 37.0415 44.6398 37.1516 44.8766 37.0623C45.1322 37.0519 45.3877 37.0436 45.6432 37.0332C45.88 36.9418 46.1356 37.0519 46.3724 36.9605C46.6279 36.9521 46.8814 36.9418 47.1369 36.9335C47.3405 36.8483 47.5628 36.9438 47.7685 36.8649C48.1507 36.8566 48.535 36.8462 48.9173 36.8379C49.6569 37.1204 50.3943 37.4133 51.1402 37.6855C55.1226 39.1418 59.1072 40.5877 63.0855 42.0544C63.5778 42.2372 64.0619 42.4802 64.4981 42.769C65.2045 43.2364 65.3645 43.8327 65.0861 44.6346C64.7246 45.6754 63.823 46.2882 62.6368 46.1864C61.8162 46.1158 60.9852 45.9849 60.1937 45.7605C56.2735 44.6491 52.3658 43.5003 48.454 42.3618C48.4228 42.3535 48.3958 42.3307 48.3668 42.314Z" fill="#022020"/>
<path d="M28.7285 36.6493C28.4003 36.6867 28.0679 36.695 27.748 36.7635C25.6518 37.2102 23.5578 37.6735 21.4616 38.1222C19.9949 38.4359 18.522 38.7267 17.0554 39.0466C16.8206 39.0986 16.6045 39.2357 16.3781 39.3333C16.2909 39.3209 16.1994 39.2835 16.1184 39.3001C13.7667 39.7883 11.4151 40.2807 9.06341 40.773C7.13553 41.176 5.20766 41.5832 3.27771 41.9759C2.77081 42.0797 2.25768 42.0943 1.75494 41.9218C1.40593 41.8034 1.14417 41.5791 0.99459 41.2487C0.477305 40.1082 0.793078 38.9989 1.66353 38.4089C2.11226 38.1056 2.5963 37.8147 3.10735 37.6444C4.61558 37.1416 6.14251 36.6929 7.66528 36.2379C8.39446 36.0198 9.13404 35.8349 9.86738 35.6355C10.0793 35.6064 10.2912 35.5545 10.501 35.5545C16.2015 35.5503 21.9041 35.5545 27.6046 35.542C27.9869 35.542 28.23 35.6272 28.3671 36.0032C28.4502 36.2317 28.606 36.4353 28.7285 36.6493Z" fill="#07D4E2"/>
<path d="M38.3032 30.2625C39.0781 30.1233 39.8572 29.9987 40.63 29.8387C42.481 29.4565 44.3299 29.0638 46.1788 28.667C47.5126 28.3804 48.8442 28.0854 50.1758 27.7841C50.3462 27.7447 50.5041 27.6491 50.6682 27.5785C50.7742 27.7737 50.9341 27.6574 51.0608 27.6304C52.6355 27.3001 54.2082 26.9615 55.7808 26.627C58.2966 26.0952 60.8103 25.5571 63.3282 25.0419C63.8912 24.9276 64.4666 24.8279 65.0525 24.965C65.5884 25.0897 65.9333 25.3951 66.1161 25.9061C66.4963 26.9822 66.2034 27.9753 65.2498 28.6151C64.8281 28.8997 64.3648 29.1573 63.8829 29.3152C62.4349 29.7909 60.9703 30.221 59.5078 30.6531C58.7619 30.8733 58.0057 31.0644 57.2537 31.268C56.9421 31.2992 56.6326 31.3573 56.3209 31.3573C50.7243 31.3636 45.1276 31.3553 39.5331 31.3719C39.0781 31.374 38.7748 31.2805 38.6211 30.8214C38.5525 30.6219 38.4113 30.4474 38.3032 30.2625Z" fill="#07D4E2"/>
<path d="M43.5822 37.1521C43.5053 37.2975 43.3952 37.3536 43.2249 37.3141C43.04 37.2726 42.8468 37.258 42.6577 37.2331C42.9652 37.2061 43.2747 37.1791 43.5822 37.1521Z" fill="#022427"/>
<path d="M41.1684 37.3306C41.2328 37.341 41.2972 37.3493 41.3658 37.3597C41.0583 37.4739 40.8714 37.4739 40.4995 37.3576C40.7218 37.3493 40.9441 37.341 41.1684 37.3306Z" fill="#022427"/>
<path d="M23.3496 29.7519C23.5947 29.7291 23.8399 29.7041 24.0829 29.6813C23.8399 29.7041 23.5947 29.7291 23.3496 29.7519Z" fill="#012F32"/>
<path d="M34.3229 39.1584C34.3208 39.1855 34.3167 39.2104 34.3146 39.2374C34.0778 39.2332 33.8389 39.2312 33.6021 39.227C33.841 39.2042 34.0819 39.1813 34.3229 39.1584Z" fill="#028D97"/>
<path d="M46.3723 36.9597C46.1292 36.9846 45.8861 37.0075 45.6431 37.0324C45.8861 37.0075 46.1292 36.9846 46.3723 36.9597Z" fill="#022427"/>
<path d="M44.8765 37.0625C44.6335 37.0874 44.3925 37.1103 44.1494 37.1352C44.3925 37.1103 44.6335 37.0854 44.8765 37.0625Z" fill="#022427"/>
<path d="M47.7663 36.8649C47.5565 36.8877 47.3467 36.9106 47.1348 36.9334C47.3467 36.9106 47.5565 36.8877 47.7663 36.8649Z" fill="#022427"/>
<path d="M24.9453 29.6502C25.1551 29.6274 25.365 29.6045 25.5727 29.5796C25.365 29.6045 25.1551 29.6274 24.9453 29.6502Z" fill="#012F32"/>
<path d="M26.4404 29.5487C26.6503 29.5258 26.858 29.503 27.0678 29.4801C26.858 29.503 26.6503 29.5258 26.4404 29.5487Z" fill="#012F32"/>
<path d="M42.5869 37.2367C42.4581 37.3883 42.3251 37.3842 42.188 37.2512C42.3209 37.245 42.4539 37.2408 42.5869 37.2367Z" fill="#022427"/>
</svg>
