<svg xmlns:xlink="http://www.w3.org/1999/xlink" xmlns="http://www.w3.org/2000/svg" xmlns:svg="http://www.w3.org/2000/svg" xmlns:sodipodi="http://sodipodi.sourceforge.net/DTD/sodipodi-0.dtd" xmlns:rdf="http://www.w3.org/1999/02/22-rdf-syntax-ns#" xmlns:inkscape="http://www.inkscape.org/namespaces/inkscape" xmlns:dc="http://purl.org/dc/elements/1.1/" xmlns:cc="http://creativecommons.org/ns#" version="1.1" id="Layer_1" inkscape:version="1.0 (4035a4fb49, 2020-05-01)" x="0px" y="0px" viewBox="0 0 612 792" style="enable-background: new 0 0 612 792">
<style type="text/css">.st0{fill:none;stroke:#FFFFFF;stroke-miterlimit:10;}
	.st1{fill:none;stroke:#FFFFFF;stroke-width:0.75;stroke-miterlimit:10;}
	.st2{fill:none;stroke:#FFFFFF;stroke-width:0.5;stroke-miterlimit:10;}</style>

<!-- sodipodi ignored -->
	
<path id="path4" class="st0" d="M198,162l45,0c5,0,9,4,9,9v90c0,5-4,9-8.9,9l-44.7,0.2c-5,0-9-4-9.1-9L189,171  C189,166.1,193,162,198,162z" />
<line id="line6" class="st1" x1="216" y1="168" x2="224.9" y2="168" />
<circle id="circle8" class="st2" cx="220.5" cy="261.9" r="4.5" />
<path id="path10" class="st1" d="M208.7,202c-2.1,0.9-5.1,2.8-6.6,6.2c-3.3,7.8,5.3,16.8,7.2,18.8c1.8,1.9,11.1,11.6,19.9,8.3  c3.9-1.5,6.1-4.9,7.1-6.9c-2.8-1.9-5.6-3.9-8.4-5.8c-1.4,1.3-2.7,2.5-4.1,3.8c-2-1.2-4.6-3-7.2-5.7c-2.4-2.5-4.1-5-5.2-7  c1.2-1.1,2.3-2.1,3.5-3.2C212.8,207.7,210.7,204.8,208.7,202z" />
<path id="path12" class="st1" d="M203.6,225.8" />
<path id="path14" class="st1" d="M216.4,206.5c15.2-2.9,13.7,12,13.7,12" />
<path id="path16" class="st1" d="M213.8,195.7c31.1-5.6,28,23.4,28,23.4" />
<path id="path18" class="st1" d="M215.4,201.5c22.8-4.1,20.5,17.3,20.5,17.3" />
<rect id="rect20" x="194.1" y="170.9" class="st1" width="52.9" height="84.9" />
</svg>