<svg xmlns:xlink="http://www.w3.org/1999/xlink" xmlns="http://www.w3.org/2000/svg" version="1.1" id="Layer_1" x="0px" y="0px" viewBox="0 0 612 792" style="enable-background: new 0 0 612 792">
<style type="text/css">.st0{fill:none;stroke:#FFFFFF;stroke-miterlimit:10;}
	.st1{fill:none;stroke:#FFFFFF;stroke-width:0.75;stroke-miterlimit:10;}
	.st2{fill:none;stroke:#FFFFFF;stroke-width:0.5;stroke-miterlimit:10;}</style>

<path class="st0" d="M285.4,341.8l45,0c5,0,9,4,9,9v90.1c0,5-4,9-9,9l-44.7,0.2c-5,0-9-4-9-9l-0.3-90.3  C276.4,345.8,280.4,341.8,285.4,341.8z" />
<line class="st1" x1="303.3" y1="347.8" x2="312.3" y2="347.8" />
<circle class="st2" cx="307.9" cy="441.6" r="4.5" />
<path class="st1" d="M290.9,405.6" />
<rect x="281.4" y="350.7" class="st1" width="52.9" height="84.9" />
<rect x="292.7" y="381.9" class="st1" width="31.8" height="22.5" />
<path class="st1" d="M292.8,400c4.3-3,8.6-6,12.9-9c1,0.8,2,1.5,3,2.3c1-0.8,2.1-1.5,3.2-2.3c4.2,3,8.5,6,12.7,9c0,1.5,0,2.9,0,4.4  h-31.8C292.8,402.9,292.8,401.5,292.8,400z" />
<path class="st1" d="M294.1,382c4.8,3.7,9.7,7.5,14.5,11.2c4.9-3.8,9.8-7.6,14.8-11.4C313.7,382,303.9,382,294.1,382z" />
</svg>