<?xml version="1.0" encoding="utf-8"?>
<!-- Generator: Adobe Illustrator 24.0.1, SVG Export Plug-In . SVG Version: 6.00 Build 0)  -->
<svg version="1.1" id="Layer_1" xmlns="http://www.w3.org/2000/svg" xmlns:xlink="http://www.w3.org/1999/xlink" x="0px" y="0px"
	 viewBox="0 0 422.8 738.7" style="enable-background:new 0 0 422.8 738.7;" xml:space="preserve">
<style type="text/css">
	.st0{display:none;fill:none;stroke:#FFFFFF;stroke-miterlimit:10;}
	.st1{fill:none;stroke:#FFFFFF;stroke-width:6;stroke-miterlimit:10;}
	.st2{fill:none;stroke:#FFFFFF;stroke-width:7;stroke-miterlimit:10;}
	.st3{fill:none;stroke:#FFFFFF;stroke-width:10;stroke-miterlimit:10;}
</style>
<line class="st0" x1="203.5" y1="45.7" x2="264" y2="45.7"/>
<circle class="st1" cx="214.3" cy="679.5" r="30.7"/>
<rect x="56" y="65.6" class="st0" width="356.5" height="572.1"/>
<g>
	<rect x="109.7" y="314.7" class="st2" width="214.5" height="151.3"/>
	<path class="st2" d="M109.9,436.9c28.9-20.2,57.8-40.5,86.7-60.7c6.8,5.1,13.5,10.1,20.3,15.2c7.1-5.3,14.2-10.4,21.3-15.7
		c28.6,20.3,57.2,40.6,85.8,61c0.1,9.8,0.1,19.5,0.2,29.3H109.7C109.7,456.3,109.8,446.6,109.9,436.9z"/>
	<path class="st2" d="M118,314.8c16.4,12.9,32.9,25.9,49.4,38.7c16.3,12.7,32.6,25.3,48.9,37.9c33.2-25.5,66.3-51.1,99.5-76.6
		c-32.9,0.3-65.8,0.4-98.7,0.4C184.1,315.2,151.1,315.1,118,314.8z"/>
</g>
<path class="st3" d="M337.5,730.5H88.9c-43.4,0-78.6-35.2-78.6-78.6V88.3c0-43.4,35.2-78.6,78.6-78.6h248.6
	c43.4,0,78.6,35.2,78.6,78.6v563.6C416,695.3,380.9,730.5,337.5,730.5z"/>
</svg>
