<?xml version="1.0" encoding="utf-8"?>
<!-- Generator: Adobe Illustrator 24.0.1, SVG Export Plug-In . SVG Version: 6.00 Build 0)  -->
<svg version="1.1" id="Layer_1" xmlns="http://www.w3.org/2000/svg" xmlns:xlink="http://www.w3.org/1999/xlink" x="0px" y="0px"
	 viewBox="0 0 421.2 737.8" style="enable-background:new 0 0 421.2 737.8;" xml:space="preserve">
<style type="text/css">
	.st0{fill:none;stroke:#FFFFFF;stroke-width:7;stroke-miterlimit:10;}
	.st1{fill:none;stroke:#FFFFFF;stroke-width:6;stroke-miterlimit:10;}
	.st2{fill:none;stroke:#FFFFFF;stroke-width:10;stroke-miterlimit:10;}
</style>
<path id="path10" class="st0" d="M131,279.8c-12.6,5.8-31.8,17.3-40.6,38.2C70,366.3,122.9,421.6,135,434.2
	c11.2,11.7,68.5,71.6,122.6,51.1c23.9-9,37.4-30,43.8-42.4c-17.4-12-34.7-23.9-52.1-35.8c-8.3,7.8-16.7,15.5-25,23.3
	c-12.4-7.5-28.3-18.8-44.2-35.2c-15-15.5-25.3-30.8-32.3-43c7.2-6.7,14.3-13.3,21.5-19.9C156.5,314.9,143.7,297.4,131,279.8z"/>
<path id="path14" class="st0" d="M178.7,307.5c93.8-17.8,84.4,74,84.4,74"/>
<path id="path16" class="st0" d="M162.5,240.9C354.5,206.3,335.3,385,335.3,385"/>
<path id="path18" class="st0" d="M172.2,276.7c140.7-25.6,126.6,106.6,126.6,106.6"/>
<circle class="st1" cx="212" cy="676.2" r="30.7"/>
<path class="st2" d="M335.1,727.1H86.5c-43.4,0-78.6-35.2-78.6-78.6V84.9c0-43.4,35.2-78.6,78.6-78.6h248.6
	c43.4,0,78.6,35.2,78.6,78.6v563.6C413.7,692,378.5,727.1,335.1,727.1z"/>
</svg>
