<?xml version="1.0" encoding="utf-8"?>
<!-- Generator: Adobe Illustrator 24.0.1, SVG Export Plug-In . SVG Version: 6.00 Build 0)  -->
<svg version="1.1" id="Layer_1" xmlns="http://www.w3.org/2000/svg" xmlns:xlink="http://www.w3.org/1999/xlink" x="0px" y="0px"
	 viewBox="0 0 1920 1080" style="enable-background:new 0 0 1920 1080;" xml:space="preserve">
<style type="text/css">
	.st0{fill:#FFFFFF;}
	.st1{fill:none;}
</style>
<path class="st0" d="M852.2,624.9c-1.6,2.7-3.3,5.4-5,8c-17.1,25.3-41.7,44.1-70.2,52.4c-4.8,1.4-9.6,2.5-14.6,3.3
	c-2.9-5.3-5.5-10.8-7.8-16.4c5.8-0.5,11.5-1.5,17.1-2.8c27.1-6.5,51-22.5,68.7-44.5c2.2-2.7,4.3-5.6,6.3-8.5
	c0.9,1.2,1.8,2.3,2.7,3.5c0,0,0,0,0,0v0c0.7,1.4,1.5,2.7,2.2,4v0c0,0,0,0,0,0c0.1,0.1,0.3,0.5,0.4,0.7c0-0.1-0.1-0.2-0.1-0.3
	C851.9,624.5,852,624.7,852.2,624.9z"/>
<path class="st0" d="M851.9,624.5c-0.1-0.2-0.3-0.6-0.4-0.7c0,0,0,0,0,0l0.2,0.4C851.8,624.4,851.9,624.5,851.9,624.5z"/>
<path class="st0" d="M1166.3,672.1c-2.3,5.7-4.9,11.1-7.8,16.4c-5-0.8-9.9-1.9-14.6-3.3c-28.5-8.3-53.1-27.1-70.2-52.4
	c-1.8-2.6-3.4-5.3-5-8c-0.1-0.2-0.3-0.4-0.4-0.6c-0.1-0.1-0.1-0.2-0.2-0.3c-0.1-0.1-0.1-0.2-0.2-0.3c-0.3-0.5-0.6-1.1-1-1.7
	c0,0-0.1-0.1-0.1-0.1c-0.1-0.1-0.1-0.2-0.2-0.4c-0.1-0.2-0.2-0.4-0.3-0.5c-0.2-0.3-0.3-0.7-0.6-1c-0.8-1.4-1.5-2.8-2.2-4.3v0
	c-23.4-34.5-60.9-57-103.2-57c-42.3,0-79.8,22.4-103.2,57c-1.5-3-3-5.9-4.6-8.7c-0.2-0.3-0.3-0.6-0.5-0.8
	c22.8-39.1,62.8-65.1,108.3-65.1c45.5,0,85.5,26,108.3,65.1c0,0,0,0,0,0.1c0.1,0.2,0.3,0.5,0.5,0.7c1.6,2.8,3.3,6,4.8,9c0,0,0,0,0,0
	c0.1,0.1,0.3,0.4,0.3,0.4c1.9,2.8,4.2,6.1,6.2,8.6c17.7,22,41.6,38,68.6,44.5C1154.8,670.6,1160.5,671.6,1166.3,672.1z"/>
<path class="st1" d="M1074,615.7c0,0-0.1-0.1-0.1-0.1"/>
<path class="st0" d="M961.2,672.4c-52.9,0.3-86.2-34-98.6-49.5c23.6,30.3,58.7,49.6,97.9,49.6c38.7,0,73.4-18.8,97-48.5
	C1044.5,639.9,1012.1,672.1,961.2,672.4z"/>
<path class="st0" d="M1068.7,624.9c-6,10.6-15.2,25.9-32.5,38.2c-2.4,1.7-12.6,10.9-27,16.3c-4.2,1.6-23.7,9.9-48.8,10
	c-23.2,0-41.8-8.1-48.4-10.5c-7.4-2.7-15.5-8.2-26.4-16c0,0-19.4-13.9-33.5-38c0,0-0.2-0.4-0.4-0.6c0,0.1,0.1,0.1,0.1,0.2
	c-0.1-0.2-0.3-0.6-0.4-0.7c0,0,0,0,0,0v0l-2.2-4v0c0,0,0,0,0,0c-0.9-1.1-1.8-2.3-2.7-3.5c-2.7-4-5.1-8.5-8.2-12.1c0,0,0,0,0,0
	c-6.4-7.6-13.6-14.5-21.4-20.4c-13.5-10.3-28.9-17.8-45.5-21.8h0c0-0.1,0-0.2,0.1-0.3c0.3-1.1,0.6-2.2,0.8-3.3
	c0.9-4.4,1.4-8.9,3-13.1c0.2,0,0.4,0.1,0.5,0.2c11.8,3.5,24.4,9.2,34.6,16c0.6,0.4,1.2,0.8,1.8,1.2c0.6,0.4,1.2,0.8,1.7,1.2
	c1.7,1.2,3.4,2.5,5.1,3.8c1.7,1.3,3.3,2.7,4.9,4.1l0,0c11,9.6,20.5,21.2,28.1,34.2c0.2,0.3,0.3,0.5,0.5,0.8c1.6,2.8,3.2,5.7,4.6,8.7
	v0c0.4,0.6,1.9,2.9,4.5,6.3c0.3,0.4,0.5,0.7,0.8,1c12.4,15.6,45.7,49.9,98.6,49.5c51-0.3,83.3-32.5,96.2-48.4
	c0.2-0.2,0.3-0.4,0.5-0.6c3.3-4.2,5.3-7.1,5.7-7.9c0.7,1.4,1.4,2.8,2.2,4.3c0.2,0.4,0.4,0.7,0.6,1c0.1,0.2,0.2,0.4,0.3,0.5
	c0.1,0.2,0.2,0.3,0.2,0.4c0,0.1,0.1,0.1,0.1,0.1c0.3,0.6,0.7,1.2,1,1.7c0.1,0.2,0.3,0.5,0.4,0.7
	C1068.4,624.5,1068.6,624.7,1068.7,624.9z"/>
<path class="st0" d="M1149.3,561.9c-16.1,4.1-31.4,11.8-44.5,21.8v0c-7.8,6-15,12.8-21.4,20.5c-3,3.6-6.4,8.1-9,11.9
	c-0.1-0.1-0.3-0.3-0.3-0.4c0,0,0,0,0,0c-1.4-2.9-3.1-6.1-4.8-9c-0.1-0.2-0.3-0.5-0.5-0.7c7.6-13,18.1-24.8,29.1-34.3
	c4.3-3.8,8.8-7.2,13.4-10.3c10.2-6.8,21.9-12.1,33.8-15.6C1146.6,551.1,1148.1,556.5,1149.3,561.9z"/>
<path class="st0" d="M1166.2,558.6c-0.2-0.6-0.5-1.1-0.7-1.7C1165.7,557.5,1165.9,558,1166.2,558.6c-5.8,0.7-11.4,1.8-16.8,3.4
	c0,0,0,0,0-0.1c-1.3-5.5-2.7-10.8-4.3-16.1c-0.3-1.2-0.7-2.4-1.1-3.5c-11.5-36.8-30.3-69.2-54.2-94.6c15.1,23.7,23.8,51.9,23.8,82.1
	c0,10.9-1,22-3.2,32.3c-4.7,3.1-9.3,6.8-13.5,10.6c4-13.3,6.2-28.2,6.2-42.8c0-55.3-31.1-103.4-76.7-127.3c0,0,0,0,0,0
	c-0.1,0-0.2-0.1-0.3-0.1c-1.9-4.5-4.1-8.7-6.6-12.7c4.4,1.5,8.8,3.2,13.1,5h0c61.9,26.5,111,86,132.8,161.2c0,0,0,0,0,0.1
	c0.3,0.9,0.5,1.8,0.8,2.7C1166.2,558.6,1166.2,558.6,1166.2,558.6z"/>
<path class="st0" d="M1057.4,624c-23.6,29.7-58.3,48.5-97,48.5c-39.2,0-74.3-19.2-97.9-49.6c12.4,15.6,45.7,49.9,98.6,49.5
	C1012.1,672.1,1044.5,639.9,1057.4,624z"/>
<path class="st0" d="M901.3,389.6c-2.5,4-4.7,8.2-6.6,12.7c-0.1,0-0.2,0.1-0.3,0.1c0,0,0,0,0,0c-45.6,24-76.7,72-76.7,127.3
	c0,14.6,2.2,28.7,6.2,42c-1.6-1.4-3.2-2.8-4.9-4.1c-1.7-1.3-3.4-2.6-5.1-3.8c-1.1-0.8-2.3-1.6-3.5-2.4c-0.3-1.3-0.5-2.6-0.8-3.9
	c-0.2-1.2-0.4-2.4-0.6-3.6c-0.2-1.5-0.5-3-0.6-4.5c-0.4-3.2-0.7-6.4-0.9-9.6c-0.2-3.4-0.3-6.8-0.3-10.3c0-16.5,2.6-32.4,7.5-47.3
	c0.1-0.4,0.3-0.9,0.4-1.3c0.1-0.4,0.3-0.8,0.4-1.2c0.4-1,0.7-2.1,1.1-3.1c3.8-10.3,8.6-20,14.4-29.1c-7.5,8-14.5,16.6-20.9,25.8
	c-1.1,1.7-2.3,3.3-3.4,5c-0.2,0.4-0.5,0.7-0.7,1.1c-1.1,1.7-2.2,3.5-3.3,5.2c-4.8,7.8-9.1,15.9-13.1,24.3
	c-4.9,10.5-9.3,21.6-12.8,33.1c-0.4,1.2-0.7,2.4-1.1,3.6c-0.4,1.3-0.8,2.6-1.1,4c-1.1,4-2.2,8.1-3.1,12.2c-1.4-0.4-2.7-0.8-4.1-1.1
	c-4.1-1-8.3-1.8-12.6-2.3h0c0.2-0.6,0.4-1.1,0.6-1.7c-0.2,0.5-0.5,1.1-0.7,1.7c0,0-0.1,0-0.1,0c0.3-0.9,0.5-1.8,0.8-2.7
	c0,0,0,0,0-0.1c21.8-75.1,70.9-134.7,132.8-161.2h0C892.5,392.8,896.9,391.1,901.3,389.6z"/>
<path class="st0" d="M824,571.8L824,571.8c-1.6-1.4-3.2-2.8-4.9-4.1C820.7,569,822.4,570.4,824,571.8L824,571.8z"/>
</svg>
