<svg id="Layer_1" data-name="Layer 1" xmlns="http://www.w3.org/2000/svg" viewBox="0 0 411.79 299.87"><defs><style>.cls-1{fill:#0d618f;}.cls-2{fill:#0481c0;}.cls-3{fill:none;}</style></defs><title>zasejinakstíny</title><path class="cls-1" d="M383.43,602.88l.1-.15h0l-.06.07,0,0Z" transform="translate(-288.49 -363.2)"/><path class="cls-2" d="M384.1,594.91l-.12-.17c-1.68,2.47-5.69,8.11-8.24,11.45l-.13.18-.12.15h0l-.26.33c-.25.33-.48.62-.69.88-17.68,22-41.56,38-68.65,44.5a116.44,116.44,0,0,1-13.41,2.43q-2.1-4.39-3.92-8.94a116.36,116.36,0,0,0,17.08-2.82c27.09-6.55,51-22.47,68.65-44.5q3.32-4.11,6.3-8.49,1.31,1.76,2.69,3.46l0,0h0C383.55,593.92,383.82,594.42,384.1,594.91Z" transform="translate(-288.49 -363.2)"/><path class="cls-1" d="M375.61,606.37l.13-.18-.12.17Z" transform="translate(-288.49 -363.2)"/><path class="cls-1" d="M386.15,598.54l0,0h0l-.05.08a.09.09,0,0,1,0,.05h0a1,1,0,0,0-.13.2.57.57,0,0,0-.08.13.51.51,0,0,1-.09.13h0a.65.65,0,0,1-.09.16c-.25.42-.52.86-.8,1.28l-.12.2-.24.39-.12.18s0,0,0,0a.21.21,0,0,1,0,.06l-.07.12h0a1.4,1.4,0,0,0-.1.16h0l0,0s0,0,0,.05a.86.86,0,0,1-.1.16.22.22,0,0,1-.05.08h0l-.05.06a.43.43,0,0,1,0,.07l-.08.12a1.2,1.2,0,0,0-.13.21.24.24,0,0,0-.06.09.24.24,0,0,0-.06.09h0q-1.38-1.71-2.69-3.46c-.81,1.18-1.64,2.36-2.48,3.51s-1.72,2.29-2.61,3.42c2.55-3.34,6.56-9,8.24-11.45l.12.17c.26.5.54,1,.82,1.47s.4.72.61,1.08v0l0,0c.05.12.27.5.38.69l-.09-.2c.11.17.29.49.34.57Z" transform="translate(-288.49 -363.2)"/><path class="cls-1" d="M383.43,602.88l0,0c-1,1.58-1.94,3.09-2.32,3.66-17.06,25.28-41.68,44.08-70.2,52.39a115.24,115.24,0,0,1-14.63,3.28q-2-3.69-3.84-7.5a116.44,116.44,0,0,0,13.41-2.43c27.09-6.55,51-22.47,68.65-44.5.21-.26.44-.55.69-.88l.26-.33h0l.12-.15h0c.94-1.18,1.84-2.37,2.73-3.59s1.67-2.33,2.48-3.51q1.31,1.75,2.69,3.46h0Z" transform="translate(-288.49 -363.2)"/><path class="cls-2" d="M383.43,602.88l.1-.15a.41.41,0,0,1,0,.09l0,0Z" transform="translate(-288.49 -363.2)"/><path class="cls-2" d="M383.54,602.74h0Z" transform="translate(-288.49 -363.2)"/><path class="cls-2" d="M375.74,606.19l-.12.17h0Z" transform="translate(-288.49 -363.2)"/><path class="cls-3" d="M385.89,598.15c-.11-.19-.33-.57-.38-.69l0,0,.21.36.06.11Z" transform="translate(-288.49 -363.2)"/><path class="cls-2" d="M700.28,645.74q-1.81,4.51-3.89,8.87a118.14,118.14,0,0,1-12.95-2.36c-27.08-6.55-51-22.47-68.64-44.5-2-2.51-4.33-5.85-6.23-8.64l-.3-.42s0,0,0,0c-1.44-2.95-3.12-6.15-4.76-9-.13-.22-.33-.48-.46-.69l0-.07c-.48-.82-1-1.63-1.45-2.43s-.86-1.39-1.3-2.08-.69-1.1-1-1.63c-.2-.32-.42-.65-.64-1-.39-.6-.79-1.2-1.2-1.79l0,0c-.38-.56-.77-1.11-1.16-1.66-.73-1-1.48-2.06-2.24-3.07h0c-.77-1-1.54-2-2.32-3-.39-.49-.79-1-1.19-1.47-.61-.75-1.23-1.5-1.86-2.24l-.56-.66c-.62-.71-1.24-1.42-1.87-2.12s-1.27-1.39-1.91-2.08l-.43-.45c-.72-.76-1.44-1.51-2.18-2.25l-1-1c-.57-.56-1.14-1.12-1.72-1.67-1.88-1.8-3.81-3.53-5.79-5.21-.87-.73-1.74-1.45-2.62-2.16q-2.17-1.75-4.42-3.39c-.5-.38-1-.74-1.5-1.09-1.15-.82-2.31-1.62-3.49-2.4-.61-.41-1.23-.81-1.86-1.21s-1.32-.84-2-1.24l-2-1.19c-3.21-1.89-6.5-3.64-9.87-5.22l-1.17-.55c-.7-.32-1.41-.64-2.13-1-1-.43-2-.85-3-1.25q-3.23-1.31-6.53-2.42l-1.14-.38c-2.26-.75-4.56-1.42-6.87-2-.6-.16-1.2-.32-1.81-.46s-1.21-.3-1.82-.43l-2.46-.54c-1-.21-2-.4-3-.59-.61-.11-1.23-.22-1.85-.31q-3.72-.61-7.5-1l-1.59-.14c-1.28-.12-2.56-.2-3.85-.26-.6,0-1.2-.06-1.8-.08-1.41,0-2.83-.08-4.25-.08-.82,0-1.64,0-2.45,0l-1.65,0c-1.6.06-3.18.14-4.76.26l-1.32.11c-.67.05-1.34.12-2,.19l-1.47.16-1.2.14-1.33.18-1,.14c-.33,0-.66.09-1,.15l-1.89.31-.41.07-1.64.3-.77.15-.76.15-.85.18c-.5.1-1,.21-1.51.33-.65.14-1.29.29-1.93.45l-1.52.38c-.78.2-1.55.4-2.32.62-1.5.42-3,.86-4.45,1.34l-1.12.36-1.95.67-1.85.67-.3.11c-1.19.44-2.36.9-3.53,1.38a120.31,120.31,0,0,0-11,5.15c-.61.33-1.22.65-1.82,1l-1.16.65-1.7,1a124.5,124.5,0,0,0-10.65,7c-.49.36-1,.72-1.48,1.1s-.71.53-1.05.8l-.68.53c-1,.8-2.06,1.63-3.07,2.47l-1.17,1q-1.62,1.36-3.18,2.79c-.36.33-.73.66-1.09,1s-.93.86-1.39,1.31l-1.38,1.33c-.45.44-.91.89-1.35,1.35-1.35,1.37-2.67,2.76-4,4.19-.87.94-1.72,1.91-2.55,2.88-.42.49-.84,1-1.24,1.48q-3.1,3.71-5.94,7.66c-.37.49-.72,1-1.06,1.48l-.12.17c-.36.51-.72,1-1.06,1.54s-.67,1-1,1.48-.58.87-.86,1.31-.57.88-.85,1.32c-.76-1.43-1.55-2.84-2.35-4.24-.16-.28-.32-.56-.49-.83q1.23-2.11,2.53-4.17c23.17-36.81,61.92-60.93,105.8-60.93,45.53,0,85.53,26,108.34,65.1l0,.07c.48.93.23.37.67,1.27l.77,1.28,0,0,.2.36c.26.46.51.94.77,1.41l.75,1.41.3.58c.6,1.15,1.17,2.29,1.71,3.39v0l.3.42c1.9,2.79,4.21,6.13,6.23,8.64,17.68,22,41.56,38,68.64,44.5A119.46,119.46,0,0,0,700.28,645.74Z" transform="translate(-288.49 -363.2)"/><path class="cls-1" d="M603.25,580.37c.34.59.69,1.2,1,1.82l0,0-.77-1.28c-.44-.9-.19-.34-.67-1.27C602.92,579.89,603.12,580.15,603.25,580.37Z" transform="translate(-288.49 -363.2)"/><path class="cls-1" d="M696.39,654.61c-1.22,2.56-2.51,5.09-3.87,7.57a115.78,115.78,0,0,1-14.64-3.28c-28.52-8.32-53.13-27.11-70.2-52.39q-2.62-3.88-5-8c-.48-.82-1.07-1.85-1.74-3.06l-1.13-2.09c-.29-.54-.58-1.09-.86-1.64-.45-.87-.88-1.74-1.31-2.61h0a138.44,138.44,0,0,0-9.13-12c-.27-.33-.55-.66-.84-1q-2.25-2.61-4.63-5.09c-.44-.47-.89-.93-1.34-1.38a132.46,132.46,0,0,0-11.63-10.5l-1.2-.94c-1-.83-2.12-1.64-3.2-2.42-.45-.34-.91-.67-1.37-1-1.55-1.11-3.12-2.17-4.71-3.2l-1.6-1q-2.41-1.5-4.88-2.9l-1.6-.89A122.52,122.52,0,0,0,536.84,540l-1.45-.55-1.28-.46c-.49-.17-1-.35-1.48-.51l-1-.32c-.52-.18-1-.35-1.57-.51l-1.35-.42c-.61-.19-1.21-.37-1.83-.54q-1.83-.53-3.69-1c-1.13-.29-2.28-.55-3.42-.8l-.6-.13-1.58-.33q-2.94-.6-5.93-1l-1.39-.2-1.26-.16-1.8-.21c-.49-.06-1-.11-1.46-.15l-1.52-.14q-3.06-.26-6.17-.35c-1.23,0-2.46-.06-3.7-.06s-2.64,0-4,.07c-.66,0-1.31,0-2,.08-.89,0-1.76.09-2.64.16l-1.27.1c-1.75.14-3.5.32-5.23.55-.56.07-1.13.14-1.69.23l-1.48.22c-1.12.17-2.24.36-3.35.57-.55.1-1.1.2-1.65.32s-1.26.25-1.88.39l-1.59.36c-.73.16-1.47.34-2.2.53l-1.37.35c-2.84.75-5.65,1.61-8.41,2.56-.93.32-1.85.66-2.77,1l-1.54.58c-1.17.46-2.34.94-3.5,1.43l-1.66.72q-4.61,2-9,4.46c-.46.25-.92.5-1.37.76-1.7,1-3.38,2-5,3l-1.6,1c-1.59,1-3.16,2.09-4.71,3.2-.52.36-1,.73-1.54,1.11a129.69,129.69,0,0,0-12.65,10.59c-.45.42-.89.84-1.32,1.27s-.71.69-1,1-.56.55-.84.84c-.45.45-.89.91-1.33,1.37q-2.31,2.4-4.51,4.94c-.35.4-.69.81-1,1.21-.84,1-1.66,2-2.47,3l-1,1.32q-2.89,3.71-5.56,7.63c-.74-1.5-1.49-3-2.27-4.45.28-.44.56-.88.85-1.32s.57-.88.86-1.31.65-1,1-1.48.7-1,1.06-1.54l.12-.17c.35-.49.7-1,1.06-1.48q2.83-3.95,5.94-7.66c.41-.5.82-1,1.24-1.48q1.26-1.46,2.55-2.88c1.29-1.43,2.61-2.82,4-4.19l1.35-1.35,1.38-1.33c.46-.44.92-.88,1.39-1.31s.72-.68,1.09-1q1.56-1.42,3.18-2.79l1.17-1c1-.84,2-1.67,3.07-2.47l.68-.53c.34-.27.69-.54,1.05-.8s1-.74,1.48-1.1a124.5,124.5,0,0,1,10.65-7l1.7-1,1.16-.65c.6-.34,1.21-.66,1.82-1a120.31,120.31,0,0,1,11-5.15c1.17-.48,2.34-.94,3.53-1.38l.3-.11,1.85-.67,1.95-.67,1.12-.36c1.47-.48,2.95-.92,4.45-1.34.77-.22,1.54-.42,2.32-.62l1.52-.38c.64-.16,1.28-.31,1.93-.45.5-.12,1-.23,1.51-.33l.85-.18.76-.15.77-.15,1.64-.3.41-.07,1.89-.31c.33-.06.66-.1,1-.15l1-.14,1.33-.18,1.2-.14,1.47-.16c.67-.07,1.34-.14,2-.19l1.32-.11c1.58-.12,3.16-.2,4.76-.26l1.65,0c.81,0,1.63,0,2.45,0,1.42,0,2.84,0,4.25.08.6,0,1.2,0,1.8.08,1.29.06,2.57.14,3.85.26l1.59.14q3.78.36,7.5,1l1.85.31c1,.19,2,.38,3,.59l2.46.54c.61.13,1.22.28,1.82.43s1.21.3,1.81.46c2.31.6,4.61,1.27,6.87,2l1.14.38q3.3,1.11,6.53,2.42c1,.41,2,.82,3,1.25.72.31,1.43.63,2.13,1l1.17.55c3.37,1.58,6.66,3.33,9.87,5.22l2,1.19c.67.4,1.33.82,2,1.24s1.25.8,1.86,1.21c1.18.78,2.34,1.58,3.49,2.4l1.5,1.09q2.25,1.64,4.42,3.39c.88.71,1.75,1.43,2.62,2.16,2,1.68,3.91,3.41,5.79,5.21.58.55,1.15,1.11,1.72,1.67l1,1c.74.74,1.46,1.49,2.18,2.25l.43.45c.64.69,1.28,1.38,1.91,2.08s1.25,1.41,1.87,2.12l.56.66c.63.74,1.25,1.49,1.86,2.24.4.48.8,1,1.19,1.47.78,1,1.55,2,2.32,3h0c.76,1,1.51,2,2.24,3.07.39.55.78,1.1,1.16,1.66l0,0c.41.59.81,1.19,1.2,1.79.22.32.44.65.64,1,.36.54.71,1.08,1,1.63s.87,1.38,1.3,2.08,1,1.61,1.45,2.43l0,.07c.13.21.33.47.46.69,1.64,2.82,3.32,6,4.76,9,0,0,0,0,0,0l.3.42c1.9,2.79,4.21,6.13,6.23,8.64,17.68,22,41.56,38,68.64,44.5A118.14,118.14,0,0,0,696.39,654.61Z" transform="translate(-288.49 -363.2)"/><path class="cls-3" d="M608,589.34l-.09-.13" transform="translate(-288.49 -363.2)"/><path class="cls-3" d="M588.51,577.12c-.27-.33-.55-.66-.84-1q-2.25-2.61-4.63-5.09c-.44-.47-.89-.93-1.34-1.38a132.46,132.46,0,0,0-11.63-10.5l-1.2-.94c-1-.83-2.12-1.64-3.2-2.42-.45-.34-.91-.67-1.37-1-1.55-1.11-3.12-2.17-4.71-3.2l-1.6-1q-2.41-1.5-4.88-2.9l-1.6-.89A122.52,122.52,0,0,0,536.84,540l-1.45-.55-1.28-.46c-.49-.17-1-.35-1.48-.51l-1-.32c-.52-.18-1-.35-1.57-.51l-1.35-.42-1.83-.54q-1.83-.53-3.69-1c-1.13-.29-2.28-.55-3.42-.8l-.6-.13-1.58-.33q-2.94-.6-5.93-1l-1.39-.2-1.26-.16-1.8-.21c-.49-.06-1-.11-1.46-.15l-1.52-.14q-3.06-.26-6.17-.35c-1.23,0-2.46-.06-3.7-.06s-2.64,0-4,.07c-.66,0-1.31,0-2,.08-.89,0-1.76.09-2.64.16l-1.27.1c-1.75.14-3.5.32-5.23.55l-1.69.23-1.48.22c-1.12.17-2.24.36-3.35.57l-1.65.32c-.63.12-1.26.25-1.88.39l-1.59.36c-.73.16-1.47.34-2.2.53l-1.37.35c-2.84.75-5.65,1.61-8.41,2.56-.93.32-1.85.66-2.77,1l-1.54.58c-1.17.46-2.34.94-3.5,1.43l-1.66.72q-4.61,2-9,4.46c-.46.25-.92.5-1.37.76-1.7,1-3.38,2-5,3l-1.6,1c-1.59,1-3.16,2.09-4.71,3.2-.52.36-1,.73-1.54,1.11a129.69,129.69,0,0,0-12.65,10.59c-.45.42-.89.84-1.32,1.27s-.71.69-1,1-.56.55-.84.84c-.45.45-.89.91-1.33,1.37q-2.31,2.4-4.51,4.94c-.35.4-.69.81-1,1.21-.84,1-1.66,2-2.47,3l-1,1.32q-2.89,3.71-5.56,7.63h0l.16.24q2.13,3.12,4.39,6.1l.81,1c.19.25.39.5.59.74,23.55,29.91,58.39,48.84,97.27,48.84s73.52-18.82,97.07-48.57l.44-.54c2-2.5,3.84-5.09,5.65-7.74l.07-.11h0A138.44,138.44,0,0,0,588.51,577.12Z" transform="translate(-288.49 -363.2)"/><path class="cls-2" d="M602.68,598.54c-.78,1.38-1.61,2.85-2.51,4.38-6,10.17-14.94,23.16-30,33.85-2.44,1.74-12.56,10.85-27,16.34-4.2,1.61-23.71,9.91-48.77,10-23.2,0-41.76-8.09-48.34-10.47-7.43-2.67-15.46-8.22-26.4-16a135.7,135.7,0,0,1-33.52-38v0c-.05-.08-.23-.4-.34-.57l-.06-.11-.21-.36v0l-.71-1.29h0l-.62-1.11v0l-.89-1.6h0l0,0q-1.38-1.71-2.69-3.46c-2.69-4-5.11-8.45-8.17-12.09v0A133.48,133.48,0,0,0,351,557.4a122.43,122.43,0,0,0-45.52-21.81h0a2.68,2.68,0,0,1,.07-.27c.91-3.26,1.65-6.56,2.53-9.81a122.83,122.83,0,0,1,41.66,20.81,133.48,133.48,0,0,1,21.38,20.42v0c3.06,3.64,5.48,8.11,8.17,12.09q1.31,1.75,2.69,3.46l0,0h0l2.24,4v0l0,0c.05.12.27.5.38.69l-.09-.2c.12.19.35.58.35.59a135.7,135.7,0,0,0,33.52,38c10.94,7.81,19,13.36,26.4,16,6.58,2.38,25.14,10.52,48.34,10.47,25.06,0,44.57-8.35,48.77-10,14.41-5.49,24.53-14.6,27-16.34,15.08-10.69,24-23.68,30-33.85a.41.41,0,0,0,.05-.09c.28.55.57,1.1.86,1.64l1.13,2.09C601.61,596.69,602.2,597.72,602.68,598.54Z" transform="translate(-288.49 -363.2)"/><path class="cls-1" d="M599,591.75a.41.41,0,0,1-.05.09c-6,10.17-14.94,23.16-30,33.85-2.44,1.74-12.56,10.85-27,16.34-4.2,1.61-23.71,9.91-48.77,10-23.2,0-41.76-8.09-48.34-10.47-7.43-2.67-15.46-8.22-26.4-16a135.7,135.7,0,0,1-33.52-38s-.23-.4-.35-.59l.09.2c-.11-.19-.33-.57-.38-.69l0,0v0l-2.24-4h0l0,0q-1.38-1.71-2.69-3.46c-2.69-4-5.11-8.45-8.17-12.09v0a133.48,133.48,0,0,0-21.38-20.42,122.83,122.83,0,0,0-41.66-20.81,64.82,64.82,0,0,1,2-6.34,126.53,126.53,0,0,1,34.4,15.91l1.75,1.19,1.72,1.21c1.72,1.23,3.42,2.51,5.08,3.83s3.29,2.68,4.89,4.09h0a137.47,137.47,0,0,1,28.13,34.22c.17.27.33.55.49.83.8,1.4,1.59,2.81,2.35,4.24s1.53,3,2.27,4.45h0l.16.24c.46.71,1.54,2.34,3.25,4.62.35.46.73,1,1.14,1.48l.81,1c.19.25.39.5.59.74,23.55,29.91,58.39,48.84,97.27,48.84s73.52-18.82,97.07-48.57l.44-.54c1-1.23,1.84-2.35,2.57-3.33,1.65-2.22,2.68-3.78,3.08-4.41l.07-.11C598.07,590,598.5,590.88,599,591.75Z" transform="translate(-288.49 -363.2)"/><path class="cls-2" d="M357.94,545.38h0q-2.4-2.11-4.89-4.09Q355.55,543.28,357.94,545.38Z" transform="translate(-288.49 -363.2)"/><path class="cls-2" d="M591.48,597.53c-23.55,29.75-58.3,48.57-97.07,48.57s-73.72-18.93-97.27-48.84c12.84,15.9,45.92,49.11,98,48.79C546.24,645.75,578.65,613.4,591.48,597.53Z" transform="translate(-288.49 -363.2)"/><path class="cls-2" d="M683.32,535.54a124.92,124.92,0,0,0-44.54,21.8h0a133.4,133.4,0,0,0-21.43,20.49c-3,3.56-6.39,8-9,11.94l-.3-.42v0c-.54-1.1-1.11-2.24-1.71-3.39l-.3-.58-.75-1.41c-.26-.47-.51-1-.77-1.41l-.2-.36c.32-.36,2.2-3,2.67-3.42l.09-.08h0l0,0,.07-.09a.91.91,0,0,0,.1-.13c2.31-2.72,5.47-7.51,8.28-11l.56-.68a133.4,133.4,0,0,1,21.43-20.49h0a125.29,125.29,0,0,1,43.08-21.42Q682.06,530.14,683.32,535.54Z" transform="translate(-288.49 -363.2)"/><path class="cls-1" d="M606.75,578.28l.29.41-.09.08c-.47.44-2.35,3.06-2.67,3.42-.34-.62-.69-1.23-1-1.82-.13-.22-.33-.48-.46-.69.15-.24.31-.48.48-.73.75-1.06,1.65-2,2.38-3.08.48.93.65,1.49,1.09,2.39Z" transform="translate(-288.49 -363.2)"/><path class="cls-1" d="M615.52,567.44c-2.81,3.49-6,8.28-8.28,11a.91.91,0,0,1-.1.13C609.6,575,612.7,570.84,615.52,567.44Z" transform="translate(-288.49 -363.2)"/><path class="cls-1" d="M680.59,524.84a125.29,125.29,0,0,0-43.08,21.42h0c-1.12.85-2.24,1.73-3.33,2.62a134,134,0,0,0-18.1,17.87l-.56.68c-2.82,3.4-5.92,7.52-8.38,11.13l-.07.09s0,0,0,0l-.29-.41v0c-.44-.9-.61-1.46-1.09-2.39-.73,1.13-1.63,2-2.38,3.08,7.09-10.85,18.39-24.55,27.6-32.74,1.85-1.62,3.75-3.23,5.69-4.79l.92-.74c.87-.68,1.75-1.36,2.63-2,.57-.43,1.14-.85,1.71-1.24l1.27-.9a.05.05,0,0,1,0,0c.37-.26.73-.51,1.1-.75l.17-.12.89-.6a125.35,125.35,0,0,1,33.76-15.59C679.58,521.23,680.1,523,680.59,524.84Z" transform="translate(-288.49 -363.2)"/><path class="cls-2" d="M615.52,567.44c-2.81,3.49-6,8.28-8.28,11a.91.91,0,0,1-.1.13C609.6,575,612.7,570.84,615.52,567.44Z" transform="translate(-288.49 -363.2)"/><path class="cls-2" d="M637.48,540.68l-.92.74c-1.94,1.56-3.84,3.17-5.69,4.79l1-.87c1.55-1.35,3.12-2.67,4.72-3.94Z" transform="translate(-288.49 -363.2)"/><path class="cls-1" d="M700.15,532.21c-.23-.56-.46-1.11-.68-1.66.19.56.39,1.11.58,1.67-1.94.22-3.86.49-5.77.83-.09-.3-.17-.6-.26-.91,0,0,0,0,0-.06C672.19,457,623.12,397.4,561.2,370.93h0c-1.42-.61-2.85-1.21-4.29-1.77q-1.59-3.06-3.39-6,6.66,2.28,13.13,5.05h0c61.92,26.48,111,86,132.8,161.16l0,.06c.26.91.52,1.81.78,2.73Z" transform="translate(-288.49 -363.2)"/><path class="cls-1" d="M647.6,503.37a166.57,166.57,0,0,1-1.07,19c-.51,4.54-1.22,9-2.13,13.3l-.17.12c-.37.24-.73.49-1.1.75a.05.05,0,0,0,0,0c-.43.28-.85.58-1.27.9-.57.39-1.14.81-1.71,1.24-.88.65-1.76,1.33-2.63,2l-.91.72a163.8,163.8,0,0,0,6.22-38.33c1.27-29-5-56-16.43-77.53A150.19,150.19,0,0,1,636.46,446,152.42,152.42,0,0,1,647.6,503.37Z" transform="translate(-288.49 -363.2)"/><path class="cls-2" d="M694.28,533.05a97.68,97.68,0,0,0-10.95,2.55s0,0,0-.06q-1.26-5.41-2.73-10.7c-.49-1.81-1-3.61-1.54-5.4-.35-1.19-.71-2.37-1.08-3.55q-1.1-3.48-2.26-6.9c-11.53-33.63-29.23-63.36-51.39-87.11-.18-.21-.38-.41-.57-.62.88,1.39,1.75,2.8,2.58,4.22l0,.06c11.46,21.55,17.7,48.53,16.43,77.53a163.8,163.8,0,0,1-6.22,38.33l.91-.72-.92.74c-1.94,1.56-3.84,3.17-5.69,4.79.25-.83.5-1.67.73-2.51,1.17-4.14,2.16-8.42,3-12.79a152.52,152.52,0,0,0,2.52-27.54,143.66,143.66,0,0,0-75.71-126.8l-1-.52,0,0-.27-.14q-1.47-3.47-3.18-6.73c1.44.56,2.87,1.16,4.29,1.77h0a198.16,198.16,0,0,1,25.9,13.44q7.23,4.44,14.14,9.52C644,425.26,677.14,474,694,532.08c0,0,0,0,0,.06C694.11,532.45,694.19,532.75,694.28,533.05Z" transform="translate(-288.49 -363.2)"/><path class="cls-3" d="M597.64,589.13h0l-.07.11c-1.81,2.65-3.69,5.24-5.65,7.74l-.44.54c-23.55,29.75-58.3,48.57-97.07,48.57s-73.72-18.93-97.27-48.84c-.2-.24-.4-.49-.59-.74l-.81-1q-2.26-3-4.39-6.1l-.16-.24h0q2.65-3.93,5.56-7.63l1-1.32c.81-1,1.63-2,2.47-3,.34-.4.68-.81,1-1.21q2.2-2.54,4.51-4.94c.44-.46.88-.92,1.33-1.37.28-.29.55-.57.84-.84s.7-.7,1-1,.87-.85,1.32-1.27A129.69,129.69,0,0,1,423,555.93c.51-.38,1-.75,1.54-1.11,1.55-1.11,3.12-2.17,4.71-3.2l1.6-1c1.65-1,3.33-2,5-3,.45-.26.91-.51,1.37-.76q4.42-2.42,9-4.46l1.66-.72c1.16-.49,2.33-1,3.5-1.43l1.54-.58c.92-.34,1.84-.68,2.77-1,2.76-.95,5.57-1.81,8.41-2.56l1.37-.35c.73-.19,1.47-.37,2.2-.53l1.59-.36c.62-.14,1.25-.27,1.88-.39l1.65-.32c1.11-.21,2.23-.4,3.35-.57l1.48-.22,1.69-.23c1.73-.23,3.48-.41,5.23-.55l1.27-.1c.88-.07,1.75-.12,2.64-.16.65,0,1.3-.06,2-.08,1.31,0,2.63-.07,4-.07s2.47,0,3.7.06q3.11.09,6.17.35l1.52.14c.49,0,1,.09,1.46.15l1.8.21,1.26.16,1.39.2q3,.43,5.93,1l1.58.33.6.13c1.14.25,2.29.51,3.42.8s2.47.64,3.69,1l1.83.54,1.35.42c.53.16,1,.33,1.57.51l1,.32c.5.16,1,.34,1.48.51l1.28.46,1.45.55a122.52,122.52,0,0,1,14.67,6.77l1.6.89q2.46,1.39,4.88,2.9l1.6,1c1.59,1,3.16,2.09,4.71,3.2.46.32.92.65,1.37,1,1.08.78,2.15,1.59,3.2,2.42l1.2.94a132.46,132.46,0,0,1,11.63,10.5c.45.45.9.91,1.34,1.38q2.38,2.48,4.63,5.09c.29.32.57.65.84,1A138.44,138.44,0,0,1,597.64,589.13Z" transform="translate(-288.49 -363.2)"/><path class="cls-2" d="M435.32,363.2a91.54,91.54,0,0,0-6.57,12.69l-.28.14,0,0a143.67,143.67,0,0,0-76.69,127.32,145.87,145.87,0,0,0,2.95,29.24c.89,4.34,2,8.59,3.24,12.77q-2.38-2.1-4.88-4.07c-1.66-1.32-3.36-2.6-5.08-3.83-1.14-.82-2.3-1.62-3.47-2.4-.27-1.28-.52-2.56-.76-3.85s-.42-2.38-.61-3.57c-.22-1.37-.42-2.74-.6-4.12,0-.11,0-.22-.05-.33-.4-3.17-.72-6.36-.93-9.58q-.35-5.08-.34-10.26a152.76,152.76,0,0,1,7.45-47.3c.14-.44.28-.88.43-1.31s.27-.82.42-1.23c.36-1,.73-2.09,1.12-3.13a152.29,152.29,0,0,1,14.41-29.11,224.69,224.69,0,0,0-20.86,25.82c-1.15,1.66-2.29,3.34-3.4,5-.23.35-.46.7-.68,1.06-1.13,1.73-2.24,3.47-3.31,5.24a249.22,249.22,0,0,0-13.1,24.34A256.13,256.13,0,0,0,313,509.38q-1.12,3.23-2.14,6.5c-.37,1.18-.73,2.37-1.08,3.56s-.79,2.65-1.15,4c-.2.69-.39,1.38-.58,2.08q-1.34,4.86-2.48,9.82a2.68,2.68,0,0,0-.07.27q-2-.6-4.11-1.11c-2.29-.56-4.6-1.05-6.92-1.44-1.88-.33-3.78-.61-5.68-.82h0c.19-.56.4-1.11.59-1.67-.19.48-.4,1-.59,1.44l-.09.22h-.11c.26-.92.52-1.82.79-2.73l0-.06c21.81-75.14,70.88-134.68,132.8-161.16h0q6.4-2.75,13-5h0Z" transform="translate(-288.49 -363.2)"/><path class="cls-2" d="M358,545.39h0q-2.4-2.11-4.89-4.09,2.49,2,4.88,4.07Z" transform="translate(-288.49 -363.2)"/><path class="cls-1" d="M288.59,532.21c.23-.56.46-1.11.68-1.66-.19.56-.39,1.11-.58,1.67,1.94.22,3.86.49,5.77.83.09-.3.17-.6.26-.91,0,0,0,0,0-.06C316.55,457,365.62,397.4,427.54,370.93h0c1.42-.61,2.85-1.21,4.29-1.77q1.59-3.06,3.39-6-6.66,2.28-13.13,5.05h0c-61.92,26.48-111,86-132.8,161.16l0,.06c-.26.91-.52,1.81-.78,2.73Z" transform="translate(-288.49 -363.2)"/><path class="cls-1" d="M341.42,503.37a166.57,166.57,0,0,0,1.07,19c.51,4.54,1.22,9,2.13,13.3l.17.12c.37.24.73.49,1.1.75a.05.05,0,0,1,0,0c.43.28.85.58,1.27.9s1.14.81,1.71,1.24c.88.65,1.76,1.33,2.63,2l.91.72a163.8,163.8,0,0,1-6.22-38.33c-1.27-29,5-56,16.43-77.53A150.19,150.19,0,0,0,352.56,446,152.42,152.42,0,0,0,341.42,503.37Z" transform="translate(-288.49 -363.2)"/></svg>