<svg id="Layer_1" data-name="Layer 1" xmlns="http://www.w3.org/2000/svg" viewBox="0 0 793.62 578.01"><defs><style>.cls-1{fill:#fff;}</style></defs><title>NL1</title><path class="cls-1" d="M191.38,538.59q-4.6,7.88-9.66,15.37c-32.88,48.72-80.34,85-135.31,101a221.46,221.46,0,0,1-28.2,6.32,292.22,292.22,0,0,1-15-31.69,224.28,224.28,0,0,0,32.92-5.43c52.22-12.63,98.25-43.31,132.33-85.78q6.39-7.92,12.14-16.36,2.52,3.38,5.18,6.67l0,0h0c1.39,2.63,2.84,5.23,4.32,7.79v0s0,0,0,0c.1.23.52,1,.73,1.33-.05-.13-.15-.33-.28-.6C190.86,537.69,191.11,538.15,191.38,538.59Z" transform="translate(-3.25 -84.97)"/><path class="cls-1" d="M190.87,537.84c-.21-.36-.63-1.1-.73-1.33,0,0,0,0,0,0l.41.69C190.72,537.51,190.82,537.71,190.87,537.84Z" transform="translate(-3.25 -84.97)"/><path class="cls-1" d="M796.87,629.58a295,295,0,0,1-15,31.69,224.3,224.3,0,0,1-28.22-6.33c-55-16-102.41-52.25-135.31-101q-5.05-7.49-9.64-15.36c-.92-1.58-2.06-3.57-3.35-5.9-.31-.56-1.12-2.06-2.18-4q-2.16-4-4.18-8.19v0c-45.14-66.6-117.45-109.77-199-109.77s-153.82,43.17-199,109.77q-4.18-8.57-8.9-16.75c-.31-.54-.62-1.08-.95-1.6,44-75.46,121.07-125.48,208.81-125.48s164.86,50,208.83,125.48l.08.13c.25.41.63.91.88,1.33,3.16,5.44,6.4,11.61,9.18,17.29,0,0,0,0,0,0s.48.68.57.81c3.67,5.38,8.12,11.82,12,16.66,34.08,42.46,80.11,73.15,132.31,85.77A230.25,230.25,0,0,0,796.87,629.58Z" transform="translate(-3.25 -84.97)"/><path class="cls-1" d="M619,520.86a2.7,2.7,0,0,0-.18-.25" transform="translate(-3.25 -84.97)"/><path class="cls-1" d="M401.48,630.17c-102,.62-166.18-65.43-190.06-95.47,45.41,58.49,113.07,95.57,188.63,95.57,74.73,0,141.71-36.28,187.1-93.62C562.42,567.24,500,629.6,401.48,630.17Z" transform="translate(-3.25 -84.97)"/><path class="cls-1" d="M608.74,538.6c-11.47,20.43-29.26,50-62.7,73.69-4.7,3.35-24.21,20.91-52,31.49-8.1,3.11-45.71,19.1-94,19.2-44.72.1-80.49-15.59-93.18-20.18-14.32-5.15-29.8-15.84-50.88-30.9,0,0-37.38-26.87-64.61-73.3,0,0-.45-.77-.68-1.14a2.31,2.31,0,0,1,.17.39c-.21-.37-.63-1.1-.73-1.33,0,0,0,0,0,0v0l-4.32-7.79v0l0,0c-1.77-2.2-3.5-4.41-5.18-6.67-5.19-7.67-9.85-16.29-15.75-23.3a.06.06,0,0,1,0,0,256.7,256.7,0,0,0-41.21-39.36,236,236,0,0,0-87.74-42h0v0c0-.17-.17-.4-.11-.56,2.91-10.44,3.5-21.41,7.34-31.47.4.11.79.23,1.19.36,22.79,6.73,47.19,17.64,66.79,30.73,1.12.75,2.26,1.52,3.38,2.29s2.21,1.54,3.31,2.33q5,3.56,9.79,7.39c3.2,2.52,6.35,5.14,9.41,7.84l0,0a265.1,265.1,0,0,1,54.22,66c.33.52.64,1.06.95,1.6q4.71,8.18,8.9,16.75v0c.75,1.19,3.68,5.69,8.77,12.22l1.56,2c23.88,30,88.07,96.09,190.06,95.47,98.47-.57,160.94-62.93,185.67-93.52l.85-1a180.61,180.61,0,0,0,11-15.13q2,4.14,4.18,8.19c1.06,2,1.87,3.47,2.18,4C606.68,535,607.82,537,608.74,538.6Z" transform="translate(-3.25 -84.97)"/><path class="cls-1" d="M764.18,417.16c-31.07,7.88-60.49,22.71-85.85,42v0A256.9,256.9,0,0,0,637,498.69c-5.76,6.87-12.32,15.52-17.41,23-.09-.14-.48-.68-.57-.81s0,0,0,0c-2.78-5.69-6-11.85-9.18-17.29-.25-.42-.63-.92-.88-1.33,14.64-25.06,34.86-47.71,56-66.19a244.53,244.53,0,0,1,25.91-19.87A241.3,241.3,0,0,1,756,386.13Q760.51,401.42,764.18,417.16Z" transform="translate(-3.25 -84.97)"/><path class="cls-1" d="M796.62,410.74c-.44-1.08-.89-2.14-1.31-3.2.36,1.08.75,2.14,1.12,3.22a186.93,186.93,0,0,0-32.23,6.52s0-.08,0-.12q-3.67-15.77-8.23-31c-.68-2.3-1.37-4.57-2.08-6.85C731.7,308.43,695.48,246,649.36,196.88a293.89,293.89,0,0,1,46,158.27,306.06,306.06,0,0,1-6.17,62.18,254.1,254.1,0,0,0-26.09,20.39,288.76,288.76,0,0,0,12-82.57A276.92,276.92,0,0,0,527.23,109.74s-.06,0-.08,0-.35-.17-.52-.27A180.3,180.3,0,0,0,514,85q12.82,4.4,25.31,9.73h0c119.36,51,213.94,165.81,256,310.64a.83.83,0,0,0,0,.12c.5,1.75,1,3.49,1.5,5.26Z" transform="translate(-3.25 -84.97)"/><path class="cls-1" d="M587.15,536.65c-45.39,57.34-112.37,93.62-187.1,93.62-75.56,0-143.22-37.08-188.63-95.57,23.88,30,88.07,96.09,190.06,95.47C500,629.6,562.42,567.24,587.15,536.65Z" transform="translate(-3.25 -84.97)"/><path class="cls-1" d="M286.15,85a175.86,175.86,0,0,0-12.66,24.46l-.54.27-.06,0A278.25,278.25,0,0,0,137,436.13c-3.06-2.7-6.21-5.32-9.41-7.85s-6.47-5-9.79-7.38q-3.3-2.37-6.69-4.63c-.52-2.46-1-4.93-1.46-7.42-.43-2.27-.81-4.59-1.18-6.88-.46-2.85-.86-5.7-1.25-8.58-.77-6.11-1.39-12.26-1.79-18.46q-.68-9.81-.66-19.78A294.43,294.43,0,0,1,119.13,264c.27-.85.54-1.7.83-2.53s.52-1.58.81-2.37q1-3,2.16-6a293.1,293.1,0,0,1,27.78-56.11,432.09,432.09,0,0,0-40.21,49.77c-2.22,3.2-4.42,6.44-6.56,9.71-.44.68-.88,1.35-1.31,2.05-2.18,3.33-4.32,6.68-6.38,10.1A479.71,479.71,0,0,0,71,315.48a506.1,506.1,0,0,0-24.77,63.78q-1.06,3.42-2.08,6.87c-.77,2.54-1.52,5.1-2.22,7.67q-3.28,11.59-6,23.46Q32,416.09,28,415.12a190.94,190.94,0,0,0-24.29-4.36h0c.37-1.08.77-2.14,1.14-3.22-.42,1.06-.89,2.12-1.31,3.2l-.21,0c.5-1.77,1-3.51,1.52-5.26a.83.83,0,0,0,0-.12c42-144.83,136.62-259.6,256-310.64h0Q273.3,89.36,286.15,85Z" transform="translate(-3.25 -84.97)"/><path class="cls-1" d="M137,436.15h0q-4.62-4.07-9.43-7.88c3.2,2.53,6.35,5.15,9.41,7.85Z" transform="translate(-3.25 -84.97)"/></svg>