<svg width="1895" height="583" viewBox="0 0 1895 583" fill="none" xmlns="http://www.w3.org/2000/svg">
<path d="M2 1C488.133 1.79058 974.263 1.80945 1460.39 1.05652C1614.26 1.01888 1768.13 1 1922 1" stroke="#F1F1F1" stroke-miterlimit="10"/>
<path d="M1.97998 10.2832C258.34 19.0684 514.6 6.5881 771.05 7.93605C1000.51 9.14261 1230.05 12.5455 1459.5 12.4229C1613.64 12.3381 1767.88 8.58643 1922 10.3774" stroke="#F1F1F1" stroke-miterlimit="10"/>
<path d="M1.93994 19.3785C139.34 28.5964 273.77 26.6266 411.07 19.2937C530 12.9411 649.37 12.8091 768.45 13.6386C880.65 14.3926 992.99 13.3652 1105.15 15.8346C1222.48 18.4266 1339.7 24.6755 1457.07 25.3918C1612.07 26.3344 1767.07 17.1919 1922 19.7367" stroke="#F1F1F1" stroke-miterlimit="10"/>
<path d="M1.87988 28.1901C71.7299 35.1743 141.79 40.443 212.08 40.6504C279.08 40.8672 344.49 33.7983 411.01 28.2279C528.52 18.3878 646.94 17.4264 764.84 18.0296C876.76 18.614 989.11 17.2568 1100.92 21.9694C1218.5 26.9177 1335.69 37.2857 1453.34 39.4535C1609.82 42.2811 1765.71 26.3239 1922 28.897" stroke="#F1F1F1" stroke-miterlimit="10"/>
<path d="M1.79004 36.8622C71.16 46.0801 140.88 53.1962 211.01 53.5355C278.71 53.8654 344.01 44.8831 410.93 37.0884C526.69 23.6196 643.93 21.4141 760.44 21.5555C872 21.6969 984.25 20.1417 1095.57 27.55C1213.34 35.3918 1330.57 50.4346 1448.57 54.5723C1607.11 60.1427 1763.79 36.0893 1921.97 38.0309" stroke="#F1F1F1" stroke-miterlimit="10"/>
<path d="M1.7002 45.3817C70.1602 56.6919 139.11 65.7307 208.7 66.2868C278.8 66.8523 345.42 55.674 414.26 45.3817C527.26 28.4824 642.33 24.8537 756.52 24.3542C867.06 23.8735 978.35 22.2146 1088.44 32.5635C1207.66 43.7794 1325.87 64.185 1445.61 70.5376C1519.11 74.4396 1592.51 72.4226 1665.76 65.7496C1751.06 58.0021 1836.09 46.6259 1921.96 47.0783" stroke="#F1F1F1" stroke-miterlimit="10"/>
<path d="M1.6001 53.7614C69.5101 67.2488 138.09 78.2669 207.67 78.9455C278.55 79.6807 345.09 66.6928 414.16 53.9405C524.94 33.403 638.51 27.9458 751.16 26.6074C861.45 25.3445 972.16 23.695 1081.74 37.2578C1201.29 52.0554 1319.28 77.7862 1439.64 86.8061C1514.07 92.3764 1587.64 89.3698 1661.64 80.7834C1748.24 70.7362 1834.49 56.2779 1921.99 56.0046" stroke="#F1F1F1" stroke-miterlimit="10"/>
<path d="M1.5 62.046C68.83 77.6165 137.03 90.6327 206.6 91.5093C278.24 92.4518 344.87 77.7767 414.02 62.4136C522.53 38.3038 634.43 30.8202 745.61 28.6713C855.79 26.5412 965.69 24.9954 1074.76 41.8666C1194.68 60.3777 1312.36 91.5375 1433.43 103.357C1508.96 110.727 1582.43 106.637 1657.35 96.0805C1745.29 83.6863 1832.79 66.1554 1922.01 64.9773" stroke="#F1F1F1" stroke-miterlimit="10"/>
<path d="M1.37988 70.2744C68.0999 87.843 135.9 102.942 205.5 103.998C277.86 105.091 344.74 88.7384 413.84 70.8117C520.07 43.243 630.23 33.6386 740.03 30.632C850.25 27.6159 959.11 26.2211 1067.78 46.2968C1188.06 68.5308 1305.35 105.044 1427.21 119.691C1503.91 128.909 1577.08 123.678 1653.04 111.208C1742.29 96.4859 1831.04 75.8635 1921.98 73.79" stroke="#F1F1F1" stroke-miterlimit="10"/>
<path d="M1.28027 78.3898C68.9403 98.4185 137.86 115.893 209.28 116.44C279.68 116.967 345.17 99.7004 411.64 79.7376C515 48.7096 622.98 36.7961 731 32.8846C842.24 28.86 951.09 27.4085 1060.28 50.6606C1180.22 76.1937 1296.28 117.42 1418.1 135.215C1494.92 146.431 1567.38 141.002 1643.43 126.949C1735.78 109.899 1827.43 85.3834 1922.01 82.471" stroke="#F1F1F1" stroke-miterlimit="10"/>
<path d="M1.18994 86.5048C68.1899 108.465 136.63 128.174 208.19 128.796C279.26 129.418 345.31 110.341 411.54 88.0599C512.86 53.9972 619.12 39.9914 726.17 35.4296C837.54 30.717 945.46 29.3409 1054.27 55.3828C1174.57 84.1768 1290.14 130.191 1412.76 150.455C1490.52 163.311 1562.76 156.939 1639.62 141.228C1733.08 122.123 1825.87 94.667 1922.02 91.1137" stroke="#F1F1F1" stroke-miterlimit="10"/>
<path d="M1.10986 94.6194C67.0099 118.305 134.63 140.199 205.92 141.095C279.54 142.037 346.92 119.898 414.63 95.1284C513.5 58.9641 617.5 43.4409 722.98 38.521C833.67 33.3654 940.58 32.0647 1048.24 60.1988C1170.02 92.0558 1286.11 143.14 1410.75 165.204C1489.1 179.097 1560.85 171.387 1637.95 154.243C1731.77 133.395 1825.02 103.517 1921.95 99.6524" stroke="#F1F1F1" stroke-miterlimit="10"/>
<path d="M1.0498 102.754C66.2198 128.202 133.37 152.416 204.85 153.377C279.16 154.376 347.18 130.097 414.54 103.235C511.76 64.459 614.63 47.5313 719.6 42.4793C830.21 37.154 937.16 35.825 1044.31 65.7786C1166.38 99.9075 1281.92 154.8 1407.31 178.364C1486.09 193.171 1558.04 184.763 1635.39 166.525C1729.87 144.244 1823.91 111.972 1922.01 108.145" stroke="#F1F1F1" stroke-miterlimit="10"/>
<path d="M1.01025 110.945C65.4203 138.071 132.11 164.669 203.78 165.611C278.87 166.695 347.36 140.022 414.5 111.294C510.5 70.2752 612.5 52.3013 717.26 47.485C827.6 42.4048 935.33 40.8874 1041.86 71.9906C1164.17 107.684 1279.17 165.753 1405.2 190.032C1484.01 205.216 1556.48 196.394 1633.68 177.44C1728.52 154.16 1823.14 119.833 1922 116.562" stroke="#F1F1F1" stroke-miterlimit="10"/>
<path d="M1 119.192C64.5 147.279 130.5 175.366 201.93 176.648C277.07 177.996 345.93 150.097 412.49 120.295C508.73 77.1934 611.49 58.5881 717.36 54.1772C828.93 49.5305 938.14 48.3052 1045.57 80.5676C1167.17 117.081 1281.32 176.497 1407.2 200.088C1586.86 233.765 1745.44 129.334 1922 124.847" stroke="#F1F1F1" stroke-miterlimit="10"/>
<path d="M1.01025 127.477C65.4103 154.63 132.09 181.2 203.77 182.227C278.86 183.283 347.36 156.544 414.5 127.825C510.44 86.7786 612.5 68.7954 717.24 63.9886C827.57 58.9179 935.31 57.391 1041.84 88.494C1164.15 124.197 1279.14 182.312 1405.19 206.591C1483.99 221.775 1556.46 212.953 1633.67 193.99C1728.51 170.7 1823.13 136.346 1922 133.085" stroke="#F1F1F1" stroke-miterlimit="10"/>
<path d="M1.03027 135.743C65.9503 161.766 132.95 186.752 204.5 187.733C279.06 188.76 347.26 163.698 414.5 136.186C511.25 96.6004 613.81 79.3051 718.67 74.2815C829.21 68.9939 936.34 67.6179 1043.29 98.033C1165.45 132.765 1280.8 188.807 1406.42 212.7C1485.26 227.686 1557.34 219.119 1634.69 200.589C1729.33 177.968 1823.58 144.923 1921.98 141.21" stroke="#F1F1F1" stroke-miterlimit="10"/>
<path d="M1.06982 143.989C66.4898 168.844 133.81 192.246 205.22 193.189C279.28 194.131 347.1 170.663 414.57 144.489C512.32 106.571 615.57 90.0954 720.66 85.0529C831.31 79.7465 938.18 78.4552 1045.51 107.843C1167.51 141.256 1283.22 194.895 1408.35 218.034C1487.03 232.577 1558.87 224.387 1636.18 206.488C1730.47 184.65 1824.25 153.169 1922 149.277" stroke="#F1F1F1" stroke-miterlimit="10"/>
<path d="M1.10986 152.218C67.0299 175.856 134.66 197.695 205.95 198.59C279.56 199.532 346.95 177.44 414.63 152.727C513.5 116.619 617.5 101.142 723.07 96.2319C833.76 91.0763 940.68 89.7756 1048.35 117.91C1170.12 149.701 1286.23 200.645 1410.85 222.709C1489.19 236.574 1560.93 228.883 1638.03 211.776C1731.83 190.955 1825.03 161.143 1922.03 157.289" stroke="#F1F1F1" stroke-miterlimit="10"/>
<path d="M1.16016 160.399C67.9302 182.925 136.27 203.302 207.85 203.943C279.11 204.584 345.34 184.942 411.5 162.011C512.24 127.091 618.02 112.491 724.83 107.778C836.23 102.858 943.94 101.558 1052.63 128.344C1173.04 158.024 1288.5 205.367 1411.3 226.29C1489.3 239.58 1561.51 232.945 1638.56 216.79C1732.32 197.12 1825.4 168.835 1922 165.149" stroke="#F1F1F1" stroke-miterlimit="10"/>
<path d="M1.22021 168.542C68.5002 189.777 137.11 208.618 208.59 209.212C279.4 209.796 345.23 191.426 411.59 170.031C513.67 137.099 620.59 123.847 727.98 119.549C839.26 115.053 947.5 113.63 1056.5 138.692C1176.67 166.28 1292.43 210.494 1414.74 229.853C1492.16 242.106 1564.47 236.083 1641.04 220.993C1734.1 202.642 1826.47 176.299 1922.04 172.924" stroke="#F1F1F1" stroke-miterlimit="10"/>
<path d="M1.28027 176.638C68.9803 196.544 137.94 213.877 209.33 214.414C279.7 214.942 345.15 197.779 411.63 177.976C515.13 147.146 623.23 135.365 731.31 131.51C842.5 127.532 951.5 126.071 1060.68 149.135C1180.59 174.451 1296.68 215.366 1418.45 233.02C1495.2 244.132 1567.68 238.76 1643.68 224.829C1735.95 207.864 1827.56 183.594 1922 180.719" stroke="#F1F1F1" stroke-miterlimit="10"/>
<path d="M1.3501 184.668C67.9101 202.784 135.6 218.429 205.24 219.541C277.78 220.682 344.76 203.886 413.82 185.3C519.5 156.855 629.18 146.694 738.65 143.48C848.9 140.238 957.5 138.89 1066.05 159.814C1186.43 182.981 1303.6 220.842 1425.67 236.158C1502.67 245.847 1575.77 240.333 1651.98 227.317C1741.56 212.011 1830.59 190.559 1921.98 188.316" stroke="#F1F1F1" stroke-miterlimit="10"/>
<path d="M1.43018 192.633C68.4302 209.391 136.37 223.595 205.97 224.585C278.03 225.603 344.78 209.966 413.97 193.123C521.16 166.997 632.06 158.25 742.43 155.639C852.62 153 961.93 151.53 1070.76 170.258C1190.89 190.937 1308.35 225.197 1429.87 238.657C1506.07 247.139 1579.37 242.361 1654.87 230.654C1743.57 216.912 1831.78 197.581 1922.01 195.885" stroke="#F1F1F1" stroke-miterlimit="10"/>
<path d="M1.5 200.521C68.89 215.885 137.13 228.694 206.7 229.561C278.26 230.447 344.87 215.979 414.02 200.88C522.77 177.128 634.84 169.851 746.17 167.787C856.36 165.751 966.35 164.187 1075.47 180.7C1195.35 198.834 1313.06 229.439 1434.06 241.022C1509.47 248.205 1582.92 244.227 1657.78 233.869C1745.59 221.71 1832.96 204.499 1922 203.406" stroke="#F1F1F1" stroke-miterlimit="10"/>
<path d="M1.56982 208.326C69.3598 222.276 137.86 233.7 207.43 234.454C278.48 235.226 345.03 221.908 414.12 208.553C524.42 187.223 637.63 181.332 749.96 179.852C860.21 178.41 970.78 176.78 1080.23 191.059C1199.86 206.658 1317.79 233.586 1438.3 243.2C1512.96 249.157 1586.49 245.915 1660.71 236.904C1747.61 226.348 1834.13 211.248 1922 210.749" stroke="#F1F1F1" stroke-miterlimit="10"/>
<path d="M1.64014 216.045C69.8101 228.553 138.57 238.609 208.16 239.26C278.68 239.91 345.25 227.77 414.22 216.139C526.03 197.289 640.32 192.68 753.69 191.765C864.08 190.88 975.1 189.221 1084.9 201.285C1204.3 214.405 1322.4 237.667 1442.46 245.424C1516.46 250.203 1589.94 247.658 1663.59 239.976C1749.59 231.003 1835.27 218.006 1922 218.053" stroke="#F1F1F1" stroke-miterlimit="10"/>
<path d="M1.70996 223.652C70.25 234.698 139.25 243.445 208.89 243.972C278.89 244.51 345.52 233.605 414.32 223.633C527.58 207.243 642.88 203.84 757.32 203.463C867.9 203.077 979.25 201.427 1089.42 211.342C1208.57 222.021 1326.8 241.739 1446.5 247.742C1519.88 251.418 1593.25 249.505 1666.4 243.115C1751.52 235.688 1836.4 224.726 1922.04 225.282" stroke="#F1F1F1" stroke-miterlimit="10"/>
<path d="M1.78027 231.154C71.0603 240.778 140.71 248.233 210.78 248.592C278.61 248.95 343.89 239.637 410.88 231.427C526.29 217.289 643.3 214.819 759.54 214.857C871.03 214.857 983.25 213.321 1094.47 221.257C1212.29 229.655 1329.47 245.585 1447.62 250.137C1520.93 252.914 1594.34 251.709 1667.5 246.527C1752.28 240.57 1836.86 231.446 1922 232.389" stroke="#F1F1F1" stroke-miterlimit="10"/>
<path d="M1.83984 238.542C71.4998 246.648 141.34 252.831 211.55 253.123C278.87 253.396 344.25 245.347 410.97 238.684C527.64 227.044 645.5 225.488 762.73 225.913C874.47 226.299 986.79 224.829 1098.37 230.842C1216.01 237.176 1333.24 249.843 1451.08 252.925C1608.5 257.034 1764.82 237.1 1922 239.466" stroke="#F1F1F1" stroke-miterlimit="10"/>
<path d="M1.89014 245.81C71.8301 252.407 141.95 257.318 212.27 257.525C279.11 257.713 344.58 251.003 411.02 245.81C528.82 236.611 647.42 235.829 765.55 236.498C877.55 237.129 989.88 235.819 1101.77 240.089C1219.25 244.566 1336.5 254.226 1454.09 256.026C1610.25 258.486 1766 243.774 1922 246.432" stroke="#F1F1F1" stroke-miterlimit="10"/>
<path d="M1.93018 252.945C72.1702 257.978 142.53 261.691 212.99 261.833C279.37 261.955 344.91 256.668 411.06 252.86C529.82 246.028 649.06 245.811 767.99 246.602C880.16 247.347 992.51 246.263 1104.63 249.015C1221.98 251.899 1339.21 258.704 1456.63 259.58C1611.79 260.74 1766.94 250.712 1922.02 253.322" stroke="#F1F1F1" stroke-miterlimit="10"/>
<path d="M1.97021 259.929C257.97 272.569 513.76 254.509 769.97 256.158C882.25 256.865 994.58 256.064 1106.84 257.582C1224.08 259.165 1341.27 263.463 1458.53 263.671C1612.99 263.935 1767.53 257.893 1921.98 260.146" stroke="#F1F1F1" stroke-miterlimit="10"/>
<path d="M1.99023 266.772C258.5 273.728 514.91 263.859 771.5 265.019C1000.93 266.056 1230.44 268.544 1459.87 268.299C1613.87 268.129 1768.01 265.33 1922.03 266.829" stroke="#F1F1F1" stroke-miterlimit="10"/>
<path d="M2 273.463C488.08 275.877 974.29 273.925 1460.38 273.633C1614.25 273.548 1768.13 273.134 1922 273.463" stroke="#F1F1F1" stroke-miterlimit="10"/>
<path d="M2 280.005C258.76 283.115 515.78 279.109 772.59 280.344C1001.78 281.447 1230.96 276.65 1460.14 278.742C1614.14 280.146 1768 278.912 1921.96 279.684" stroke="#F1F1F1" stroke-miterlimit="10"/>
<path d="M2 286.461C138.67 289.656 276.12 284.425 412.82 283.049C533.15 281.843 653.34 285.066 773.65 286.819C1002.42 290.212 1231.2 278.912 1459.95 283.577C1532.22 285.057 1604.26 289.071 1676.57 288.289C1758.32 287.441 1840.02 284.105 1921.79 284.915" stroke="#F1F1F1" stroke-miterlimit="10"/>
<path d="M2 292.833C73.9 295.001 145.68 291.608 217.48 288.375C283.48 285.406 349.09 285.717 415.07 284.935C535.39 283.511 655.37 289.412 775.6 292.88C1003.75 299.478 1231.82 281.306 1459.9 288.441C1532.15 290.703 1603.9 296.801 1676.22 295.397C1758.02 293.823 1839.65 288.347 1921.5 289.346" stroke="#F1F1F1" stroke-miterlimit="10"/>
<path d="M2 299.129C74.55 301.485 146.83 296.245 219.14 291.297C285.67 286.745 351.5 285.887 418.14 285.142C538.5 283.785 658.14 292.89 778.32 298.441C1005.68 308.959 1232.74 283.71 1459.98 293.22C1532.21 296.245 1603.41 304.303 1675.86 302.098C1757.68 299.619 1839.18 291.853 1921.12 292.88" stroke="#F1F1F1" stroke-miterlimit="10"/>
<path d="M2 305.331C75.37 307.63 148.26 300.279 221.16 293.38C288.32 287.027 354.45 284.445 421.86 283.86C542.32 282.814 661.63 295.538 781.61 303.587C1008.07 318.667 1233.81 286.113 1460.1 297.932C1532.33 301.702 1602.85 311.636 1675.43 308.497C1757.27 304.963 1838.56 294.775 1920.61 295.689" stroke="#F1F1F1" stroke-miterlimit="10"/>
<path d="M2 311.447C76.36 313.455 150 303.757 223.51 294.727C291.31 286.415 357.88 281.608 426.2 281.297C546.8 280.76 665.62 297.564 785.38 308.328C1010.89 328.591 1234.99 288.535 1460.3 302.578C1532.56 307.102 1602.23 318.808 1674.99 314.624C1756.84 309.911 1837.85 297.168 1919.99 297.866" stroke="#F1F1F1" stroke-miterlimit="10"/>
<path d="M2 317.47C146.34 320.402 286.52 277.507 431 277.658C551.76 277.78 670 298.949 789.44 312.71C900.44 325.501 1010.13 323.738 1121.5 316.207C1234.3 308.582 1347.4 298.921 1460.5 307.15C1532.84 312.418 1601.5 325.849 1674.5 320.496C1756.36 314.511 1837.01 299.129 1919.38 299.496" stroke="#F1F1F1" stroke-miterlimit="10"/>
<path d="M2 323.418C148.87 325.096 289.18 272.031 436.27 273.124C557.27 274.067 674.71 299.817 793.74 316.754C904.61 332.532 1013.05 331.118 1124.47 322.296C1236.31 313.446 1348.47 302.314 1460.78 311.646C1533.23 317.668 1600.78 332.768 1674.04 326.17C1755.91 318.809 1836.14 300.722 1918.72 300.665" stroke="#F1F1F1" stroke-miterlimit="10"/>
<path d="M2 329.281C151.49 329.45 292 265.735 441.79 267.922C562.96 269.684 679.56 300.26 798.03 320.506C908.73 339.413 1015.77 338.414 1127.33 328.282C1238.23 318.215 1349.56 305.661 1461 316.029C1496.4 319.337 1530.7 326.925 1565.77 331.835C1601.51 336.831 1637.77 335.483 1673.55 331.637C1755.42 322.834 1835.15 301.994 1918 301.476" stroke="#F1F1F1" stroke-miterlimit="10"/>
<path d="M2 335.049C154.11 333.522 295.06 258.883 447.5 262.229C568.89 264.887 684.43 300.373 802.2 323.974C857.9 335.124 914.71 343.607 971.77 344.39C1024.54 345.078 1077.61 339.488 1130 334.116C1240 322.806 1350.49 308.809 1461.19 320.346C1496.59 324.031 1530.66 332.533 1565.68 337.83C1601.27 343.202 1637.47 341.468 1673.05 337C1754.92 326.708 1834.05 303.069 1917.24 302.032" stroke="#F1F1F1" stroke-miterlimit="10"/>
<path d="M2 340.779C156.64 337.433 298.25 251.738 453.3 256.291C574.88 259.816 689.2 300.25 806.11 327.216C861.39 339.968 918.17 349.95 975.22 351.071C1027.57 352.089 1080.46 345.689 1132.34 339.761C1241.54 327.31 1351.26 311.872 1461.34 324.53C1496.76 328.601 1530.61 338.027 1565.61 343.701C1601.05 349.45 1637.19 347.311 1672.61 342.212C1754.42 330.411 1833 304.02 1916.5 302.399" stroke="#F1F1F1" stroke-miterlimit="10"/>
<path d="M2 346.341C84.5 343.608 163.36 316.99 241.29 293.474C310.68 272.54 385.18 247.497 459.09 250.193C580.82 254.632 693.73 299.949 809.61 330.242C864.37 344.55 921.06 355.983 978.07 357.472C1030.07 358.829 1082.83 351.657 1134.24 345.219C1242.75 331.609 1351.81 314.813 1461.35 328.631C1496.84 333.108 1530.49 343.457 1565.5 349.517C1600.8 355.634 1636.88 353.089 1672.03 347.368C1753.92 334.041 1831.86 304.85 1915.71 302.701" stroke="#F1F1F1" stroke-miterlimit="10"/>
<path d="M2 351.853C86 348.177 165.77 318.591 244.38 292.719C313.61 269.929 390.08 241.031 464.76 244.255C586.57 249.495 697.88 299.609 812.55 333.087C866.72 348.903 923.24 361.73 980.16 363.559C1031.83 365.227 1084.58 357.329 1135.58 350.364C1243.58 335.651 1352.1 317.554 1461.27 332.559C1496.86 337.451 1530.34 348.724 1565.41 355.18C1600.48 361.636 1636.6 358.724 1671.53 352.352C1753.43 337.517 1830.7 305.584 1914.96 302.889" stroke="#F1F1F1" stroke-miterlimit="10"/>
<path d="M2 357.283C88 352.674 169.15 319.846 248.86 291.561C318.12 266.989 396.99 234.226 472.64 238.779C593.33 246.027 701.26 299.101 813.69 335.464C867.47 352.863 924.08 367.105 981.18 369.329C1032.94 371.337 1086.07 362.618 1137.06 355.191C1245.5 339.272 1354.5 319.865 1464.19 336.859C1500.02 342.41 1533.64 355.455 1569.08 361.638C1602.48 367.472 1636.65 364.211 1669.65 357.783C1752.14 341.76 1829.01 306.613 1914.23 303.38" stroke="#F1F1F1" stroke-miterlimit="10"/>
<path d="M2 362.617C89.43 357.226 171.43 321.552 251.69 291.146C320.69 265 401.45 228.638 477.78 233.652C598.36 241.616 704.15 298.771 815.1 337.98C868.1 356.717 924.36 372.127 981.25 374.606C1032.9 376.859 1086.13 367.565 1136.9 359.658C1245.17 342.787 1354.07 322.221 1463.82 340.562C1499.82 346.585 1533.37 360.619 1568.97 367.226C1602.26 373.4 1636.38 369.79 1669.18 362.843C1751.69 345.378 1827.85 307.621 1913.55 303.945" stroke="#F1F1F1" stroke-miterlimit="10"/>
<path d="M2 367.877C90.75 361.855 173.58 323.437 254.31 291.08C323.14 263.492 405.5 223.906 482.5 229.298C602.82 237.78 706.27 298.733 815.5 340.516C867.7 360.422 923.5 376.841 980.06 379.499C1031.72 381.921 1085.13 372.175 1135.82 363.862C1244.23 346.067 1353.25 324.427 1463.26 344.182C1499.54 350.695 1533.04 365.7 1568.86 372.797C1602.03 379.395 1636.12 375.427 1668.72 368.009C1751.28 349.215 1826.72 308.894 1912.92 304.86" stroke="#F1F1F1" stroke-miterlimit="10"/>
<path d="M2 373.041C92 366.603 175.55 325.594 256.66 291.475C325.4 262.549 408.92 220.211 486.68 225.791C606.5 234.481 707.44 298.949 814.81 342.918C866.08 363.908 921.21 381.1 977.45 383.852C1029.28 386.396 1082.91 376.311 1133.69 367.621C1242.5 348.997 1351.96 326.386 1462.5 347.621C1499.13 354.662 1532.65 370.628 1568.76 378.281C1601.76 385.284 1635.88 381.109 1668.28 373.211C1750.89 353.201 1825.64 310.41 1912.36 306.103" stroke="#F1F1F1" stroke-miterlimit="10"/>
<path d="M2 378.122C93 371.525 177.32 328.093 258.68 292.438C327.48 262.277 411.68 217.846 490.24 223.464C609.42 231.947 707.54 299.516 812.82 345.323C863.13 367.217 917.46 384.908 973.25 387.661C1025.42 390.224 1079.35 379.97 1130.39 370.95C1240.02 351.571 1350.15 328.103 1461.51 350.902C1498.57 358.499 1532.18 375.408 1568.67 383.711C1601.58 391.195 1635.67 386.746 1667.87 378.518C1750.55 357.406 1824.63 312.268 1911.87 307.829" stroke="#F1F1F1" stroke-miterlimit="10"/>
<path d="M2 383.115C93.86 376.687 178.85 331.013 260.33 294.085C329.33 262.802 413.62 217.033 493.08 222.405C611.3 230.408 706.44 300.531 809.4 347.761C858.69 370.382 912.07 388.29 967.29 390.872C1020 393.37 1074.29 383.115 1125.8 373.803C1236.57 353.784 1347.8 329.58 1460.26 354.01C1497.87 362.191 1531.64 380.033 1568.57 389.072C1601.36 397.102 1635.41 392.503 1667.49 383.945C1750.25 361.88 1823.72 314.528 1911.49 310.107" stroke="#F1F1F1" stroke-miterlimit="10"/>
<path d="M2 388.018C94.5 382.137 180.11 334.436 261.5 296.48C331.01 264.133 414.6 217.977 495.05 222.813C612.05 229.853 703.93 301.984 804.37 350.166C852.61 373.296 904.84 391.025 959.37 393.362C1012.83 395.662 1067.51 385.624 1119.75 376.067C1232.08 355.51 1344.75 330.713 1458.75 356.924C1497.02 365.727 1531.03 384.455 1568.5 394.371C1601.13 403.004 1635.2 398.329 1667.16 389.507C1750.01 366.66 1822.92 317.234 1911.16 313.012" stroke="#F1F1F1" stroke-miterlimit="10"/>
<path d="M2 392.844C94.89 387.905 181.07 338.432 262.27 299.873C332.5 266.517 414.63 221.078 496.16 225.018C611.53 230.607 699.99 304.19 797.7 352.758C844.85 376.199 895.7 393.362 949.44 395.276C1003.89 397.161 1059.03 387.632 1112.24 377.877C1226.57 356.924 1341.11 331.693 1456.91 359.742C1495.97 369.168 1530.31 388.782 1568.41 399.705C1600.87 409.018 1634.97 404.362 1666.85 395.351C1749.85 371.91 1822.23 320.571 1911.04 316.745" stroke="#F1F1F1" stroke-miterlimit="10"/>
<path d="M2 397.575C95 393.4 181.45 343.031 262.43 304.265C333.3 270.334 414.01 226.035 496.24 229.108C609.73 233.33 695.5 306.847 790.94 354.992C837.18 378.32 886.78 394.701 939.59 396.237C994.99 397.849 1050.59 388.998 1104.82 379.271C1221.21 358.536 1337.7 333.455 1455.26 362.956C1494.99 372.928 1529.73 393.061 1568.39 404.701C1600.75 414.447 1634.87 409.875 1666.73 400.78C1749.73 377.066 1821.88 324.652 1911 321.193" stroke="#F1F1F1" stroke-miterlimit="10"/>
<path d="M2 402.222C94.93 397.274 181 347.82 262.21 309.177C332.77 275.595 413.95 231.089 495.75 234.124C607.59 238.271 693.5 309.676 788.16 356.378C834.04 378.999 883.03 394.956 935.16 396.662C990.88 398.481 1046.83 390.309 1101.53 381.251C1219.05 361.798 1336.66 338.31 1454.88 367.896C1494.68 377.858 1529.77 397.953 1568.63 409.254C1601.08 418.679 1635.17 414.098 1667.05 405.022C1750.05 381.459 1822.05 329.677 1911.05 326.038" stroke="#F1F1F1" stroke-miterlimit="10"/>
<path d="M2 406.756C94.76 401.167 180.45 352.665 261.77 314.257C331.99 281.099 413.61 236.433 494.9 239.534C605.33 243.738 691.33 312.674 785.61 357.971C831.23 379.894 879.71 395.38 931.23 397.218C987.23 399.216 1043.5 391.723 1098.65 383.278C1217.21 365.115 1335.86 343.126 1454.71 372.788C1494.57 382.731 1529.97 402.76 1569.01 413.731C1601.53 422.864 1635.57 418.274 1667.47 409.235C1750.28 385.757 1822.35 334.71 1911.06 330.93" stroke="#F1F1F1" stroke-miterlimit="10"/>
<path d="M2 411.241C94.5 405.115 179.77 357.621 261.15 319.534C331.15 286.781 412.85 242.341 493.7 245.348C602.84 249.391 689.31 316.037 783.29 359.817C828.76 381.005 876.82 396.001 927.82 397.961C984.14 400.11 1040.64 393.249 1096.21 385.435C1215.71 368.536 1335.33 348.017 1454.75 377.706C1494.66 387.631 1530.36 407.575 1569.56 418.235C1602.13 427.085 1636.11 422.504 1668.01 413.522C1750.66 390.204 1822.67 339.873 1911.12 335.99" stroke="#F1F1F1" stroke-miterlimit="10"/>
<path d="M2 415.626C94.16 409.028 179 362.627 260.33 324.945C330.54 292.418 411.41 249.26 492.16 251.484C599.87 254.453 687.79 319.827 781.16 361.864C826.57 382.298 874.31 396.738 924.86 398.821C981.45 401.111 1038.18 394.956 1094.14 387.671C1214.51 372.015 1335.02 352.91 1454.97 382.619C1494.91 392.506 1530.89 412.355 1570.23 422.695C1602.83 431.272 1636.74 426.71 1668.64 417.766C1751.09 394.626 1823.02 345.03 1911.18 341.062" stroke="#F1F1F1" stroke-miterlimit="10"/>
<path d="M2 419.95C93.73 413.061 178.07 367.725 259.33 330.514C329.38 298.469 409.99 255.961 490.33 257.94C597.09 260.626 685.86 323.634 779.33 364.087C824.75 383.739 872.27 397.688 922.45 399.809C979.3 402.203 1036.22 396.698 1092.54 389.978C1213.71 375.529 1335.03 357.81 1455.47 387.499C1495.47 397.349 1531.66 417.076 1571.11 427.085C1603.73 435.389 1637.56 430.856 1669.45 421.977C1751.67 399.055 1823.51 350.213 1911.33 346.189" stroke="#F1F1F1" stroke-miterlimit="10"/>
<path d="M2 424.127C93.22 417.002 177.06 372.825 258.17 336.161C328.07 304.567 408.29 262.936 488.17 264.736C594.17 267.13 683.94 327.688 777.66 366.529C823.19 385.38 870.55 398.792 920.45 400.96C977.53 403.429 1034.62 398.585 1091.27 392.411C1213.15 379.14 1335.27 362.769 1456.1 392.411C1496.1 402.214 1532.53 421.799 1572.1 431.554C1604.72 439.604 1638.47 435.127 1670.32 426.305C1752.32 403.618 1824.01 355.549 1911.48 351.487" stroke="#F1F1F1" stroke-miterlimit="10"/>
<path d="M2 428.244C92.64 420.968 175.94 377.98 256.84 341.947C326.6 310.844 406.31 270.24 485.7 271.814C591.14 273.86 682.01 331.928 776.18 369.13C878.4 409.526 981.95 405.624 1090.34 394.907C1212.87 382.787 1335.62 367.716 1456.9 397.301C1496.85 407.047 1533.54 426.52 1573.16 435.945C1605.76 443.749 1639.41 439.328 1671.24 430.591C1752.93 408.15 1824.51 360.845 1911.58 356.811" stroke="#F1F1F1" stroke-miterlimit="10"/>
<path d="M2 432.279C92 424.927 174.73 383.183 255.35 347.847C324.98 317.328 404.08 277.837 482.98 279.156C587.98 280.909 680.13 336.358 774.91 371.901C877.5 410.374 981.5 407.151 1089.78 397.471C1212.89 386.472 1336.24 372.674 1457.88 402.184C1497.82 411.873 1534.7 431.119 1574.38 440.328C1606.95 447.868 1640.5 443.542 1672.28 434.889C1753.67 412.731 1825.09 366.274 1911.74 362.221" stroke="#F1F1F1" stroke-miterlimit="10"/>
<path d="M2 436.219C91.27 428.877 173.42 388.414 253.72 353.843C323.22 323.917 401.6 285.698 480 286.754C584.84 288.177 678.28 340.968 773.83 374.823C995.19 453.26 1232.5 352.438 1459.03 407.038C1498.94 416.652 1536.03 435.71 1575.72 444.654C1608.25 451.987 1641.72 447.708 1673.41 439.15C1754.47 417.293 1825.71 371.666 1911.92 367.641" stroke="#F1F1F1" stroke-miterlimit="10"/>
<path d="M2 440.073C90.5 432.806 172 393.663 252 359.912C321.36 330.628 399 293.794 476.82 294.586C581.64 295.66 676.5 345.755 772.98 377.895C995.98 452.185 1233.23 357.499 1460.38 411.826C1500.26 421.374 1537.46 440.205 1577.21 448.905C1609.69 456.011 1643 451.817 1674.68 443.363C1755.38 421.826 1826.42 377.047 1912.16 373.079" stroke="#F1F1F1" stroke-miterlimit="10"/>
<path d="M2 443.834C89.67 436.718 170.5 398.932 250.05 366.067C319.27 337.461 396.05 302.107 473.32 302.635C578.32 303.342 674.66 350.703 772.2 381.1C996.77 451.101 1234.03 362.56 1461.78 416.689C1501.61 426.115 1538.95 444.758 1578.71 453.212C1611.12 460.111 1644.3 456.04 1675.91 447.651C1756.25 426.454 1827.08 382.542 1912.31 378.64" stroke="#F1F1F1" stroke-miterlimit="10"/>
<path d="M2 447.509C88.79 440.591 169 404.21 248 372.287C317.1 344.388 392.9 310.618 469.64 310.873C574.94 311.221 672.91 355.784 771.64 384.389C997.73 449.988 1235.05 367.603 1463.36 421.439C1503.13 430.864 1540.59 449.178 1580.36 457.396C1612.69 464.079 1645.74 460.054 1677.28 451.835C1757.21 431.034 1827.82 387.999 1912.5 384.134" stroke="#F1F1F1" stroke-miterlimit="10"/>
<path d="M2 451.054C87.86 444.381 167.36 409.432 245.89 378.48C314.8 351.344 389.63 319.242 465.77 319.213C571.56 319.213 671.19 360.911 771.25 387.782C998.77 448.887 1236.25 372.645 1465.08 426.143C1504.79 435.427 1542.35 453.524 1582.08 461.517C1614.33 468.001 1647.23 464.08 1678.7 455.984C1758.23 435.522 1828.59 393.372 1912.77 389.658" stroke="#F1F1F1" stroke-miterlimit="10"/>
<path d="M2 454.598C86.89 448.226 165.66 414.748 243.65 384.851C312.38 358.517 386.2 328.149 461.7 327.848C568.17 327.424 669.5 366.312 771.01 391.383C999.85 447.934 1237.67 377.792 1466.92 430.922C1506.55 440.111 1544.2 457.925 1583.92 465.701C1616.07 471.987 1648.82 468.17 1680.21 460.206C1759.3 440.13 1829.42 398.885 1913.03 395.294" stroke="#F1F1F1" stroke-miterlimit="10"/>
<path d="M2 458.011C85.88 451.997 163.9 419.952 241.31 391.233C309.84 365.785 382.63 337.16 457.47 336.567C564.76 335.756 667.86 371.76 770.92 395.003C1000.92 446.955 1239.23 382.873 1468.86 435.597C1508.42 444.674 1546.14 462.195 1585.79 469.754C1617.79 475.853 1650.44 472.148 1681.73 464.316C1760.38 444.646 1830.23 404.325 1913.27 400.847" stroke="#F1F1F1" stroke-miterlimit="10"/>
<path d="M2 461.338C159.24 450.584 294.84 347.19 453.07 345.409C561.35 344.202 666.26 377.303 770.97 398.755C1002.06 446.098 1240.97 387.992 1470.97 440.226C1510.43 449.199 1548.2 466.409 1587.81 473.761C1619.73 479.68 1652.18 476.089 1683.38 468.398C1761.5 449.171 1831.1 409.811 1913.5 406.474" stroke="#F1F1F1" stroke-miterlimit="10"/>
<path d="M2 464.561C157.37 454.579 292.27 356.651 448.5 354.361C557.91 352.749 664.66 382.938 771.11 402.561C878.82 422.411 988.5 424.852 1097.92 423.005C1223.63 420.875 1349.79 417.161 1473.07 444.89C1512.44 453.74 1550.25 470.63 1589.78 477.775C1621.59 483.515 1653.87 480.037 1684.98 472.506C1762.68 453.656 1831.98 415.219 1913.81 412.034" stroke="#F1F1F1" stroke-miterlimit="10"/>
<path d="M2 467.709C155.43 458.538 289.64 366.162 443.87 363.4C554.56 361.402 663.19 388.66 771.45 406.436C879.71 424.212 990.19 427.171 1100.02 426.04C1225.79 424.768 1352.02 422.044 1475.3 449.471C1514.57 458.199 1552.41 474.749 1591.87 481.696C1623.54 487.266 1655.67 483.911 1686.66 476.531C1763.88 458.133 1832.89 420.639 1914.09 417.605" stroke="#F1F1F1" stroke-miterlimit="10"/>
<path d="M2 470.762C153.42 462.449 287 375.709 439.1 372.457C551.18 370.054 661.72 394.371 771.88 410.309C881 426.106 992.03 429.376 1102.31 429.028C1228.08 428.603 1354.31 426.831 1477.62 453.938C1516.78 462.553 1554.62 478.755 1594 485.503C1625.55 490.904 1657.5 487.671 1688.39 480.442C1765.11 462.534 1833.82 425.964 1914.39 423.09" stroke="#F1F1F1" stroke-miterlimit="10"/>
<path d="M2 473.732C150.65 466.371 283 385.747 432.13 381.628C546.8 378.48 660.37 400.158 773.5 414.381C882.72 428.067 993.71 431.714 1103.82 432.053C1228.65 432.44 1353.92 431.544 1476.41 457.643C1515.57 465.994 1553.25 481.093 1592.41 488.52C1625.41 494.778 1658.92 491.649 1691.35 484.043C1767.01 466.295 1835.23 431.262 1914.65 428.575" stroke="#F1F1F1" stroke-miterlimit="10"/>
<path d="M2 476.606C148.51 470.159 280.26 395.181 427.16 390.789C543.48 387.301 658.99 406.011 774.16 418.339C884.16 430.111 995.76 434.042 1106.43 435.078C1231.21 436.257 1356.43 436.275 1478.87 462.044C1517.87 470.254 1555.57 485.023 1594.64 492.205C1627.51 498.266 1660.82 495.278 1693.14 487.841C1768.29 470.565 1836.14 436.483 1914.96 433.976" stroke="#F1F1F1" stroke-miterlimit="10"/>
<path d="M2 479.387C146.32 473.883 277.5 404.588 422.11 399.941C540.18 396.171 657.68 411.827 774.95 422.308C885.78 432.204 997.95 436.37 1109.21 438.104C1233.9 440.046 1359.01 440.932 1481.4 466.38C1520.29 474.458 1557.95 488.869 1596.91 495.872C1629.63 501.744 1662.77 498.888 1694.91 491.64C1769.54 474.835 1837.13 441.686 1915.24 439.396" stroke="#F1F1F1" stroke-miterlimit="10"/>
<path d="M2 482.082C144.08 477.52 274.71 414.089 417 409.093C536.9 404.871 656.44 417.651 775.8 426.285C887.49 434.362 1000.11 438.707 1112.1 441.12C1236.67 443.816 1361.65 445.616 1483.96 470.659C1522.71 478.595 1560.34 492.638 1599.19 499.434C1631.76 505.089 1664.71 502.393 1696.78 495.324C1770.89 479 1838.16 446.87 1915.6 444.721" stroke="#F1F1F1" stroke-miterlimit="10"/>
<path d="M2 484.693C141.81 481.074 271.91 423.494 411.87 418.197C533.66 413.598 655.25 423.457 776.74 430.252C889.32 436.558 1002.37 441.035 1115.09 444.126C1239.52 447.548 1364.34 450.206 1486.55 474.862C1525.16 482.657 1562.76 496.296 1601.5 502.893C1633.92 508.398 1666.69 505.796 1698.63 498.925C1772.21 483.081 1839.16 451.931 1915.93 449.961" stroke="#F1F1F1" stroke-miterlimit="10"/>
<path d="M2 487.21C139.51 484.533 269.11 432.807 406.7 427.265C530.46 422.269 654.13 429.235 777.76 434.221C833.76 436.473 889.76 436.945 945.76 438.274C1003.17 439.631 1060.7 445.201 1118.19 447.115C1242.45 451.243 1367.08 454.749 1489.19 479C1527.65 486.644 1565.19 499.934 1603.8 506.334C1636.07 511.659 1668.65 509.161 1700.47 502.498C1773.47 487.144 1840.14 456.983 1916.23 455.192" stroke="#F1F1F1" stroke-miterlimit="10"/>
<path d="M2 489.631C72.8 488.755 141.38 474.617 210.28 460.573C274.08 447.538 336.34 439.112 401.52 436.247C527.28 430.733 653.07 434.974 778.84 438.132C835.63 439.565 892.44 439.319 949.21 440.582C1006.51 441.864 1064.01 447.821 1121.36 450.055C1245.43 454.871 1369.85 459.207 1491.82 483.043C1530.14 490.536 1567.64 503.43 1606.1 509.594C1638.22 514.74 1670.62 512.422 1702.3 505.899C1774.81 491.036 1841.12 461.855 1916.54 460.243" stroke="#F1F1F1" stroke-miterlimit="10"/>
<path d="M2 491.969C71.63 491.526 139.36 479.095 207.44 466.521C269.767 455.055 332.904 447.92 396.34 445.173C524.18 439.283 652.06 440.687 780 442.091C837.55 442.723 895.23 441.761 952.75 442.977C1009.92 444.184 1067.4 450.517 1124.61 453.043C1248.46 458.538 1372.61 463.684 1494.49 487.078C1532.65 494.411 1570.09 506.871 1608.42 512.856C1640.37 517.832 1672.6 515.608 1704.15 509.302C1776.15 494.929 1842.15 466.738 1916.85 465.296" stroke="#F1F1F1" stroke-miterlimit="10"/>
<path d="M2 494.213C70.47 494.213 137.37 483.411 204.6 472.308C267.04 461.987 328.01 456.973 391.18 453.929C521.18 447.67 651.1 446.266 781.18 445.917C839.5 445.757 898.06 444.098 956.35 445.267C1013.35 446.407 1070.84 453.071 1127.88 455.908C1251.5 462.072 1375.5 468.02 1497.15 490.952C1568.67 504.439 1632.44 526.834 1705.99 512.536C1777.42 498.652 1843.11 471.45 1917.17 470.178" stroke="#F1F1F1" stroke-miterlimit="10"/>
<path d="M2 496.37C69.33 496.832 135.39 487.605 201.78 478.001C263.47 469.084 323.9 465.691 386.05 462.59C518.15 455.993 650.3 451.704 782.5 449.725C841.58 448.783 901.02 446.445 960.09 447.567C1016.99 448.651 1074.39 455.635 1131.28 458.773C1254.67 465.578 1378.28 472.289 1499.85 494.768C1570.94 507.963 1634.85 529.5 1707.85 515.701C1778.74 502.299 1844.12 476.115 1917.51 474.984" stroke="#F1F1F1" stroke-miterlimit="10"/>
<path d="M2 498.435C68.22 499.311 133.45 491.667 199 483.581C259.92 476.041 319.85 474.25 381 471.102C515.25 464.174 649.38 457.228 783.79 453.458C843.62 451.78 903.94 448.746 963.79 449.839C1020.55 450.885 1077.9 458.161 1134.62 461.583C1257.75 469.019 1381.11 476.503 1502.48 498.501C1573.14 511.309 1637.19 532.063 1709.65 518.755C1780.01 505.843 1845.09 480.621 1917.81 479.669" stroke="#F1F1F1" stroke-miterlimit="10"/>
<path d="M2 500.414C67.14 501.686 131.55 495.597 196.22 489.028C256.32 482.93 315.81 482.619 375.96 479.433C512.37 472.214 648.57 462.553 785.1 457.115C845.67 454.711 906.87 451.007 967.51 452.082C1024.13 453.081 1081.42 460.649 1137.97 464.334C1260.83 472.374 1383.88 480.611 1505.09 502.12C1575.33 514.58 1639.49 534.495 1711.43 521.686C1781.26 509.245 1846.04 485.004 1918.09 484.212" stroke="#F1F1F1" stroke-miterlimit="10"/>
<path d="M2 502.299C66.1 503.948 129.68 499.349 193.5 494.334C252.76 489.678 311.85 490.791 371.02 487.596C509.59 480.055 647.84 467.746 786.47 460.696C847.76 457.576 909.84 453.212 971.26 454.277C1027.73 455.22 1084.95 463.081 1141.34 467.058C1263.92 475.701 1386.65 484.683 1507.69 505.701C1577.51 517.813 1641.79 536.88 1713.2 524.552C1782.51 512.591 1846.99 489.33 1918.39 488.689" stroke="#F1F1F1" stroke-miterlimit="10"/>
<path d="M2 504.09C65.09 506.088 127.87 502.987 190.83 499.481C249.23 496.239 307.95 498.746 366.17 495.541C506.89 487.794 647.17 472.808 787.85 464.174C849.85 460.404 912.8 455.371 974.99 456.427C1031.32 457.369 1088.47 465.456 1144.68 469.697C1266.98 478.934 1389.39 488.651 1510.26 509.123C1579.66 520.876 1644.04 539.095 1714.94 527.257C1783.73 515.758 1847.94 493.468 1918.69 492.968" stroke="#F1F1F1" stroke-miterlimit="10"/>
<path d="M2 505.795C64.13 508.104 126.11 506.473 188.21 504.466C245.75 502.581 304.13 506.455 361.43 503.259C504.28 495.305 646.56 477.727 789.26 467.538C851.97 463.061 915.74 457.453 978.7 458.527C1034.89 459.47 1091.95 467.774 1147.99 472.279C1269.99 482.09 1392.07 492.524 1512.77 512.468C1581.77 523.863 1646.26 541.215 1716.65 529.848C1784.93 518.811 1848.85 497.491 1918.98 497.114" stroke="#F1F1F1" stroke-miterlimit="10"/>
<path d="M2 507.407C63.22 509.999 124.41 509.792 185.67 509.292C242.34 508.821 300.38 513.92 356.81 510.753C501.81 502.61 646.01 482.478 790.66 470.8C854.06 465.682 918.66 459.49 982.36 460.574C1038.41 461.516 1095.36 469.999 1151.25 474.796C1272.96 485.164 1394.7 496.314 1515.25 515.711C1583.86 526.748 1648.43 543.232 1718.33 532.318C1786.11 521.743 1849.77 501.375 1919.27 501.121" stroke="#F1F1F1" stroke-miterlimit="10"/>
<path d="M2 508.926C62.37 511.753 122.76 512.941 183.19 513.912C239 514.807 296.71 521.094 352.33 517.955C499.33 509.68 645.51 487.04 792.07 473.911C856.07 468.171 921.52 461.403 985.96 462.544C1041.87 463.486 1098.74 472.195 1154.44 477.21C1275.86 488.134 1397.27 499.991 1517.64 518.832C1585.87 529.511 1650.52 545.1 1719.94 534.638C1787.23 524.506 1850.63 505.09 1919.53 504.948" stroke="#F1F1F1" stroke-miterlimit="10"/>
<path d="M2 510.357C61.58 513.42 121.19 515.918 180.81 518.34C235.81 520.583 293.14 527.982 348 524.938C497 516.549 645.07 491.469 793.48 476.935C858.16 470.601 924.33 463.287 989.48 464.484C1045.26 465.512 1102.02 474.343 1157.56 479.565C1278.69 491.026 1399.75 503.58 1519.97 521.856C1587.84 532.11 1652.56 546.851 1721.5 536.823C1788.31 527.124 1851.5 508.641 1919.77 508.604" stroke="#F1F1F1" stroke-miterlimit="10"/>
<path d="M2 511.696C60.86 514.938 119.69 518.718 178.51 522.573C232.65 526.126 289.65 534.562 343.83 531.527C494.83 523.044 644.68 495.598 794.83 479.688C860.11 472.779 927.03 464.947 992.83 466.22C1048.49 467.294 1105.13 476.276 1160.51 481.771C1281.35 493.769 1402.08 507.012 1522.15 524.703C1589.67 534.656 1654.46 548.445 1722.98 538.841C1789.32 529.557 1852.24 511.998 1919.98 512.045" stroke="#F1F1F1" stroke-miterlimit="10"/>
<path d="M2 512.941C60.21 516.324 118.25 521.329 176.31 526.588C229.66 531.414 286.31 540.802 339.85 537.833C492.69 529.35 644.35 499.557 796.24 482.394C862.09 474.948 929.72 466.626 996.24 467.992C1051.78 469.133 1108.3 478.237 1163.52 483.968C1284.08 496.485 1404.52 510.424 1524.42 527.522C1591.61 537.107 1656.42 549.972 1724.54 540.802C1790.44 531.914 1853.14 515.269 1920.32 515.354" stroke="#F1F1F1" stroke-miterlimit="10"/>
<path d="M2 514.1C59.64 517.587 116.9 523.742 174.21 530.368C226.82 536.456 283.02 546.701 336.06 543.808C490.71 535.325 644.06 503.28 797.58 484.891C863.98 476.936 932.28 468.152 999.38 469.632C1054.81 470.857 1111.2 480.056 1166.28 486.031C1286.56 499.063 1406.63 513.779 1526.5 530.179C1593.39 539.387 1658.28 551.329 1725.97 542.554C1791.43 534.072 1853.92 518.313 1920.57 518.501" stroke="#F1F1F1" stroke-miterlimit="10"/>
<path d="M2 515.146C59.14 518.7 115.63 525.938 172.24 533.902C224.15 541.207 279.89 552.206 332.48 549.397C488.86 541.037 643.86 506.758 798.89 487.191C865.79 478.709 934.72 469.547 1002.41 471.168C1057.74 472.488 1113.99 481.772 1168.93 487.973C1288.93 501.517 1408.73 516.805 1528.42 532.696C1595.01 541.537 1659.94 552.545 1727.25 544.147C1792.25 536.032 1854.6 521.159 1920.74 521.395" stroke="#F1F1F1" stroke-miterlimit="10"/>
<path d="M2 516.088C58.73 519.66 114.44 527.926 170.38 537.173C221.66 545.655 276.9 557.324 329.13 554.6C487.13 546.381 643.69 509.962 800.13 489.292C867.5 480.432 937.03 470.847 1005.27 472.609C1060.5 474.051 1116.62 483.401 1171.43 489.829C1291.19 503.864 1410.68 519.839 1530.27 535.071C1596.59 543.554 1661.56 553.591 1728.52 545.561C1793.17 537.804 1855.29 523.789 1920.94 524.062" stroke="#F1F1F1" stroke-miterlimit="10"/>
<path d="M2 517.031C58.39 520.584 113.35 529.792 168.66 540.292C219.35 549.906 274.06 562.121 326.02 559.51C485.56 551.471 643.58 512.987 801.37 491.281C869.17 481.95 939.21 471.996 1007.95 473.957C1063.1 475.522 1119.07 484.928 1173.77 491.573C1293.28 506.088 1412.5 522.686 1532 537.38C1598.08 545.476 1663.08 554.562 1729.7 546.871C1793.98 539.453 1855.94 526.286 1921.13 526.578" stroke="#F1F1F1" stroke-miterlimit="10"/>
<path d="M2 517.804C58.12 521.282 112.34 531.357 167.07 543.044C217.26 553.789 271.4 566.409 323.16 563.912C484.16 556.126 643.52 515.645 802.53 492.968C870.71 483.241 941.23 472.977 1010.42 475.145C1065.5 476.87 1121.33 486.295 1175.91 493.166C1295.21 508.181 1414.16 525.495 1533.6 539.51C1599.46 547.239 1664.49 555.335 1730.81 547.993C1794.73 540.895 1856.54 528.558 1921.3 528.841" stroke="#F1F1F1" stroke-miterlimit="10"/>
<path d="M2 518.501C57.94 521.865 111.44 532.723 165.64 545.551C215.38 557.323 268.92 570.264 320.57 567.889C482.86 560.386 643.5 518.029 803.63 494.41C872.15 484.315 943.08 473.778 1012.63 476.181C1067.63 478.066 1123.32 487.492 1177.82 494.598C1296.9 510.093 1415.62 528.077 1535.01 541.451C1600.67 548.803 1665.73 555.919 1731.78 548.859C1795.37 542.064 1857.05 530.518 1921.4 530.801" stroke="#F1F1F1" stroke-miterlimit="10"/>
<path d="M2 519.105C57.83 522.3 110.63 533.855 164.36 547.766C213.73 560.547 266.65 573.657 318.27 571.424C395.68 568.068 473.05 553.356 549.05 539.991C634.21 525.024 719.11 508.662 804.66 495.693C873.46 485.325 944.76 474.505 1014.66 477.163C1069.66 479.265 1125.16 488.671 1179.57 496.013C1298.46 512.036 1416.97 530.641 1536.34 543.365C1601.83 550.349 1666.91 556.456 1732.71 549.68C1796 543.158 1857.57 532.394 1921.55 532.639" stroke="#F1F1F1" stroke-miterlimit="10"/>
<path d="M2 519.623C57.79 522.583 109.93 534.704 163.24 549.68C212.33 563.422 264.6 576.561 316.24 574.478C394.02 571.339 471.76 556.259 548.02 542.526C633.83 527.069 719.37 510.094 805.59 496.71C874.59 485.994 946.22 475.032 1016.46 477.992C1071.4 480.273 1126.78 489.698 1181.12 497.238C1299.85 513.685 1418.18 533.054 1537.54 545.081C1602.89 551.678 1668 556.796 1733.54 550.265C1796.54 543.997 1858.03 533.987 1921.67 534.185" stroke="#F1F1F1" stroke-miterlimit="10"/>
<path d="M2 520.037C57.81 522.686 109.34 535.41 162.3 551.282C211.19 565.938 262.8 578.954 314.57 577.041C392.65 574.147 470.68 558.765 547.14 544.684C633.54 528.774 719.64 511.234 806.48 497.464C875.7 486.483 947.48 475.371 1017.98 478.613C1072.87 481.177 1128.11 490.48 1182.4 498.227C1300.98 515.145 1419.15 535.183 1538.5 546.597C1603.74 552.827 1668.87 556.909 1734.27 550.613C1797.04 544.571 1858.44 535.278 1921.77 535.419" stroke="#F1F1F1" stroke-miterlimit="10"/>
<path d="M2 520.367C57.9 522.685 108.86 535.824 161.5 552.573C210.28 568.087 261.22 580.848 313.17 579.086C391.47 576.485 469.72 560.839 546.31 546.456C633.24 530.141 719.84 512.072 807.21 497.944C876.56 486.737 948.52 475.521 1019.15 479.169C1074.03 481.997 1129.15 491.224 1183.37 499.179C1301.84 516.568 1419.89 537.247 1539.37 547.992C1604.52 553.855 1669.68 556.889 1734.94 550.82C1797.48 544.985 1858.83 536.39 1921.94 536.437" stroke="#F1F1F1" stroke-miterlimit="10"/>
<path d="M2 520.604C58.06 522.546 108.5 535.986 161 553.536C209.76 569.842 260 582.123 312.23 580.606C390.68 578.334 469.07 562.462 545.73 547.824C633.07 531.17 720.08 512.593 807.93 498.181C877.35 486.786 949.38 475.513 1020.11 479.557C1074.97 482.695 1129.93 491.81 1184.16 499.972C1302.53 517.824 1420.5 539.181 1540.01 549.257C1605.12 554.752 1670.31 556.731 1735.45 550.822C1797.81 545.166 1859.13 537.23 1921.95 537.183" stroke="#F1F1F1" stroke-miterlimit="10"/>
<path d="M2 520.753C110.15 523.581 202.78 584.223 311.53 581.574C390.06 579.689 468.53 563.666 545.15 548.774C632.91 531.762 720.26 512.77 808.51 498.076C877.93 486.52 949.95 475.248 1020.7 479.725C1075.57 483.202 1130.4 492.157 1184.62 500.545C1302.93 518.858 1420.85 540.904 1540.47 550.311C1605.56 555.429 1670.78 556.343 1735.85 550.584C1798.05 545.07 1859.36 537.775 1921.99 537.605" stroke="#F1F1F1" stroke-miterlimit="10"/>
<path d="M2 520.801C110.61 522.592 202 584.073 311.25 581.971C389.76 580.463 468.17 564.327 544.74 549.294C632.74 532.008 720.41 512.62 808.97 497.7C878.33 486.022 950.25 474.797 1020.97 479.792C1075.85 483.647 1130.58 492.431 1184.8 501.037C1303.08 519.802 1420.99 542.507 1540.8 551.273C1605.85 556.117 1671.21 555.76 1736.19 550.208C1798.27 544.817 1859.6 538.125 1922.06 537.814" stroke="#F1F1F1" stroke-miterlimit="10"/>
</svg>
