<svg xmlns:xlink="http://www.w3.org/1999/xlink" xmlns="http://www.w3.org/2000/svg" version="1.1" id="Layer_1" x="0px" y="0px" viewBox="0 0 421.2 737.8" style="enable-background: new 0 0 421.2 737.8">
<style type="text/css">.st0{fill:#FFFFFF;}
	.st1{fill:#FFFFFF;stroke:#FFFFFF;stroke-miterlimit:10;}</style>

<g id="path10">
	<g>
		<g>
			<path class="st0" d="M313.5,446.3l-1.6,3.1c-7.9,15.3-22.3,35.4-45.9,44.3c-7.8,3-16.2,4.5-24.8,4.5     c-31.4,0-66.7-19.5-102.1-56.5c-6.2-6.4-22.6-23.5-35.1-45.5c-16-28.1-19.5-53.4-10.3-75c7.1-16.8,21.8-30.7,42.6-40.3l3-1.4     l1.9,2.7c11.2,15.6,23.4,32.2,38.3,52.5l2.1,2.9l-2.7,2.4c-6.1,5.6-12.1,11.1-19.1,17.7c8.5,14.3,18.6,27.6,30.1,39.5     c12.2,12.6,26,23.7,40.8,33c3.4-3.2,6.8-6.4,10.3-9.6c4.2-3.9,8.3-7.7,12.5-11.6l2.3-2.2l2.7,1.8c15.3,10.5,31.9,21.9,52.1,35.8     L313.5,446.3z" />
		</g>
	</g>
</g>
<g id="path14">
	<path class="st1" d="M280.8,392.4l-6.9-1.1c0.1-0.4,5.7-38.2-15.6-60c-12.9-13.3-33.4-18.2-60.6-14.6l-0.9-6.9   c29.6-3.9,52,1.7,66.6,16.6C287.1,350.8,281.1,390.8,280.8,392.4z" />
</g>
<g id="path16">
	<path class="st1" d="M352.7,400l-6.9-1.1c0.1-0.7,11.4-73.4-31-117.5c-27.3-28.4-71-39.2-129.6-32l-0.9-6.9   c61-7.5,106.6,4,135.6,34.1c23.5,24.5,31.1,56.7,33.4,79.5C355.8,380.6,352.8,399.2,352.7,400z" />
</g>
<g id="path18">
	<path class="st1" d="M316.4,396.2l-6.9-1.1c0.1-0.5,8.4-54.2-22.7-86.5c-19.8-20.6-51.4-28.3-93.9-23l-0.9-6.9   c44.8-5.6,78.4,2.9,99.8,25.1C325.3,338.6,316.7,393.9,316.4,396.2z" />
</g>
</svg>