<?xml version="1.0" encoding="utf-8"?>
<!-- Generator: Adobe Illustrator 24.0.1, SVG Export Plug-In . SVG Version: 6.00 Build 0)  -->
<svg version="1.1" id="Layer_1" xmlns="http://www.w3.org/2000/svg" xmlns:xlink="http://www.w3.org/1999/xlink" x="0px" y="0px"
	 viewBox="0 0 224.3 161.5" style="enable-background:new 0 0 224.3 161.5;" xml:space="preserve">
<style type="text/css">
	.st0{fill:#FFFFFF;stroke:#FFFFFF;stroke-miterlimit:10;}
	.st1{fill:#FFFFFF;}
</style>
<g>
	<g>
		<path class="st0" d="M103.6,72.6c-2.3-1.7-4.6-3.5-7-5.2l0,0c-0.5-0.4-1-0.7-1.5-1.1c5.4,4.2,10.7,8.3,16,12.4c0,0,0,0,0.1,0
			c0.1-0.1,0.2-0.1,0.3-0.2C108.8,76.5,106.2,74.6,103.6,72.6z"/>
	</g>
	<g>
		<path class="st0" d="M111.1,86.9l-2.3-1.7c-5.7-4.4-11.5-8.5-17.3-13c2.7,2,5.3,4,8,6c3.5,2.6,6.9,5.1,10.3,7.7L111.1,86.9z"/>
		<path class="st1" d="M96.6,67.4L96.6,67.4c-0.5-0.4-1-0.8-1.5-1.1c5.4,4.2,10.7,8.3,16,12.4c0,0,0,0,0.1,0
			C106.3,74.9,101.4,71.2,96.6,67.4z"/>
		<path class="st0" d="M215.6,9.9v111.8c-25.8-18.4-52-37-77.4-55c8.3-6.4,16.5-12.8,24.8-19.1c16.3-12.6,32.7-25.2,49-37.7
			C212,9.9,215.6,9.9,215.6,9.9z"/>
		<path class="st0" d="M200.3,10.1c-13.9,10.6-27.7,21.3-41.5,32c-15.7,12.1-31.5,24.3-47.3,36.4c-0.1,0.1-0.2,0.1-0.3,0.2l0,0
			c0.1-0.1,0.2-0.1,0.3-0.2c-2.6-2-5.2-3.9-7.8-5.9c-2.3-1.7-4.6-3.5-7-5.2l0,0c-0.5-0.4-0.9-0.7-1.4-1.1
			C85,58.4,74.7,50.4,64.5,42.4C50.7,31.7,36.7,20.7,23.2,10.1c26.8,0.2,56,0.3,88.8,0.3C144.6,10.4,173.6,10.3,200.3,10.1z"/>
		<path class="st0" d="M85.7,67.7c-13.2,9.2-26.3,18.4-39.5,27.6c-12.7,8.9-25.4,17.8-38,26.6V9.9h3.4l3.8,3
			c14.7,11.5,29.8,23.5,44.8,35C68.7,54.5,77.2,61.1,85.7,67.7z"/>
		<path class="st0" d="M215.8,154.2H8.1c0-8,0.1-16,0.2-23.8c14-9.8,27.9-19.5,41.9-29.3C64,91.5,77.7,81.8,91.4,72.2
			c5.8,4.5,11.6,8.6,17.3,13l2.3,1.7h0.1l0.4,0.3l0.3,0.2l2.1-1.6c3.6-2.7,7.1-5.3,10.7-7.9c2.9-2.1,5.7-4.2,8.6-6.3
			c27,19.1,54.8,38.9,82.3,58.5c0,4.3,0.1,8.5,0.1,12.8C215.7,146.7,215.7,150.5,215.8,154.2z"/>
	</g>
</g>
</svg>
