<svg xmlns:xlink="http://www.w3.org/1999/xlink" xmlns="http://www.w3.org/2000/svg" version="1.1" id="Layer_1" x="0px" y="0px" viewBox="0 0 422.8 738.7" style="enable-background: new 0 0 422.8 738.7">
<style type="text/css">.st0{fill:#FFFFFF;stroke:#FFFFFF;stroke-miterlimit:10;}</style>

<g>
	<g>
		<path class="st0" d="M327.7,466v3.5h0L327.7,466z M208.7,380.9c-2.8-2.1-5.6-4.2-8.5-6.3c5.4,4.2,10.7,8.3,16,12.4    c0.1-0.1,0.2-0.1,0.3-0.2C213.9,384.8,211.3,382.9,208.7,380.9z" />
	</g>
	<g>
		<path class="st0" d="M214.8,394.2c-3.4-2.6-6.8-5.1-10.3-7.7c-2.7-2-5.3-4-8-6c0,0,0,0,0,0c5.8,4.5,11.5,8.9,17.2,13.3l2.6,2    l0.3-0.3L214.8,394.2z" />
		<path class="st0" d="M106.2,311.2v158.3h221.5V311.2H106.2z M217.1,318.7c32.6,0,61.6-0.1,88.3-0.3c-13.9,10.6-27.7,21.3-41.5,32    c-15.7,12.1-31.5,24.3-47.3,36.4c-0.1,0.1-0.2,0.1-0.3,0.2c-5.3-4.1-10.7-8.2-16-12.4c-10.2-7.9-20.5-15.9-30.7-23.9    c-13.8-10.7-27.8-21.7-41.3-32.3C155.1,318.6,184.3,318.7,217.1,318.7z M113.2,318.2h3.5l3.8,3c14.7,11.5,29.8,23.5,44.8,35    c8.5,6.6,17,13.2,25.5,19.8c-13.2,9.2-26.3,18.4-39.5,27.6c-12.7,8.9-25.4,17.8-38,26.6V318.2z M113.2,462.5c0-8,0.1-16,0.2-23.8    c14-9.8,27.9-19.5,41.9-29.3c13.8-9.6,27.5-19.3,41.3-28.9c0,0,0,0,0,0c2.7,2,5.3,4,8,6c3.4,2.6,6.8,5.1,10.3,7.7l1.8,1.4l0.3,0.2    l2.1-1.6c3.6-2.7,7.1-5.3,10.7-7.9c2.9-2.1,5.7-4.2,8.6-6.3c27,19.1,54.8,38.9,82.3,58.5c0,4.3,0.1,8.5,0.1,12.8    c0,3.7,0,7.5,0.1,11.2H113.2z M320.7,430c-25.8-18.4-52-37-77.4-55c8.3-6.4,16.5-12.8,24.8-19.1c16.3-12.6,32.7-25.2,49-37.7h3.6    V430z" />
	</g>
</g>
</svg>